<svg width="102" height="75" viewBox="0 0 102 75" fill="none" xmlns="http://www.w3.org/2000/svg">
<path opacity="0.05" d="M67.1888 45.6852C66.4862 46.5205 65.7276 46.5065 65.2754 46.3887L65.2922 45.9562C65.2922 45.9562 67.1608 45.1022 67.1131 45.2816C67.0954 45.3489 67.1309 45.5105 67.1888 45.6852Z" fill="#FF5630"/>
<path opacity="0.05" d="M72.3103 46.6299C71.1172 47.3194 70.4174 46.5112 70.2549 46.2823C70.3549 46.0198 70.5053 45.5937 70.4744 45.4723C70.4296 45.292 72.2954 46.1459 72.2954 46.1459L72.3103 46.6299Z" fill="#FF5630"/>
<path opacity="0.05" d="M71.0322 39.7512C71.0322 39.7512 72.1674 39.0972 72.415 39.3915C72.6626 39.6858 71.0322 39.7512 71.0322 39.7512Z" fill="#FF5630"/>
<path opacity="0.05" d="M71.7181 40.1113C71.7181 40.1113 71.5312 40.2048 71.9432 40.3243C72.3552 40.4439 71.7181 40.1113 71.7181 40.1113Z" fill="#FF5630"/>
<path opacity="0.05" d="M64.8536 38.3122C64.8153 38.3234 65.7982 38.9756 66.6858 38.4356C66.682 38.4356 65.0751 38.245 64.8536 38.3122Z" fill="#FF5630"/>
<path opacity="0.05" d="M66.6375 39.5596C66.6375 39.5596 66.3684 40.0884 65.8172 40.1669C65.2659 40.2453 66.6375 39.5596 66.6375 39.5596Z" fill="#FF5630"/>
<path opacity="0.05" d="M70.2451 40.707C70.2451 40.707 71.5382 42.7625 71.2906 43.2474C71.043 43.7323 70.2451 40.707 70.2451 40.707Z" fill="#FF5630"/>
<path opacity="0.05" d="M67.6945 48.8804C67.6945 48.9953 67.6945 49.1027 67.6833 49.1915C67.6496 49.6073 66.6266 49.4503 66.6266 49.4503C65.6923 49.5802 65.356 49.1317 65.2448 48.7029C65.2098 48.5636 65.1926 48.4204 65.1934 48.2768C65.1928 48.1912 65.1984 48.1056 65.2102 48.0208V47.9358C65.4116 47.8751 65.6299 47.9197 65.7913 48.0545C66.2071 48.3917 66.7583 48.133 66.7583 48.133C66.7583 48.133 67.1629 48.1666 67.3189 48.3011C67.4067 48.3768 67.5515 48.1946 67.6618 48.0208C67.6683 48.133 67.6786 48.3357 67.6852 48.5524C67.6926 48.6636 67.6945 48.7757 67.6945 48.8804Z" fill="#FF5630"/>
<path opacity="0.05" d="M66.0539 48.8558C66.0539 48.8558 65.7736 49.1305 65.2448 48.7063C65.2098 48.567 65.1926 48.4239 65.1934 48.2803C65.4634 48.4858 65.9642 48.8558 66.0539 48.8558Z" fill="#FF5630"/>
<path opacity="0.05" d="M67.6943 48.8797C67.6482 48.9152 67.5894 48.9302 67.532 48.921C67.4745 48.9118 67.4233 48.8792 67.3906 48.8311C67.4996 48.7481 67.5998 48.6542 67.6896 48.5508C67.6924 48.6629 67.6943 48.775 67.6943 48.8797Z" fill="#FF5630"/>
<path opacity="0.05" d="M69.8869 49.0721C69.8869 49.188 69.8869 49.2954 69.8972 49.3833C69.9309 49.7999 70.9539 49.6421 70.9539 49.6421C71.8882 49.7729 72.2245 49.3244 72.3357 48.8946C72.3908 48.6716 72.4025 48.4401 72.3703 48.2126V48.1276C72.1686 48.0679 71.9504 48.1124 71.7882 48.2462C71.3725 48.5835 70.8222 48.3247 70.8222 48.3247C70.8222 48.3247 70.4176 48.3593 70.2616 48.4938C70.1738 48.5695 70.029 48.3873 69.9196 48.2135C69.9131 48.3256 69.9019 48.5284 69.8953 48.7451C69.8879 48.8544 69.886 48.9666 69.8869 49.0721Z" fill="#FF5630"/>
<path opacity="0.05" d="M71.5273 49.0463C71.5273 49.0463 71.8076 49.3209 72.3355 48.8968C72.3708 48.7578 72.3883 48.615 72.3878 48.4717C72.1169 48.6763 71.6161 49.0463 71.5273 49.0463Z" fill="#FF5630"/>
<path opacity="0.05" d="M69.887 49.073C69.9329 49.1085 69.9915 49.1235 70.0488 49.1142C70.1062 49.105 70.1571 49.0725 70.1897 49.0244C70.0806 48.9416 69.9804 48.8477 69.8907 48.7441C69.8879 48.8553 69.886 48.9674 69.887 49.073Z" fill="#FF5630"/>
<path fill-rule="evenodd" clip-rule="evenodd" d="M24.8727 68.5816C24.6462 68.3091 24.5425 67.9551 24.5858 67.6034L28.7098 33.8597L29.0517 31.0569C29.131 30.4119 29.6763 29.9258 30.3261 29.9208L42.4055 29.8404C42.753 29.8383 43.085 29.6963 43.3265 29.4465C43.568 29.1967 43.6988 28.8602 43.6892 28.5128L43.6846 28.3848C43.6727 28.0345 43.8035 27.6944 44.0471 27.4423C44.2907 27.1903 44.6262 27.0479 44.9767 27.0479H57.6699C58.3825 27.0478 58.9605 27.6246 58.9621 28.3372C58.962 28.3953 58.9582 28.4533 58.9508 28.5109C58.9022 28.8746 59.0104 29.2418 59.2485 29.521C59.4867 29.8001 59.8323 29.9648 60.1991 29.974L72.3896 30.2852C72.7647 30.2944 73.1172 30.4663 73.3555 30.7562C73.5937 31.0461 73.694 31.4252 73.6304 31.795L67.536 67.3914L67.4211 68.064C67.3927 68.2359 67.3291 68.4 67.2342 68.5461L24.8727 68.5816Z" fill="#CCBC7D"/>
<rect x="61.6611" y="19.8984" width="7.13796" height="24.227" transform="rotate(34.64 61.6611 19.8984)" fill="white"/>
<rect x="62.084" y="20.8428" width="5.03927" height="5.03927" transform="rotate(34.804 62.084 20.8428)" fill="#FFAB00"/>
<rect opacity="0.5" x="58.8428" y="25.8291" width="5.04609" height="5.04609" transform="rotate(34.64 58.8428 25.8291)" fill="#FFAB00"/>
<rect opacity="0.3" x="55.3789" y="30.8418" width="5.04609" height="5.04609" transform="rotate(34.64 55.3789 30.8418)" fill="#FFAB00"/>
<rect x="53.3633" y="18.6504" width="7.13796" height="24.1355" transform="rotate(16.29 53.3633 18.6504)" fill="white"/>
<rect x="54.2627" y="19.3193" width="5.04609" height="5.04609" transform="rotate(16.29 54.2627 19.3193)" fill="#FF5630"/>
<rect opacity="0.5" x="52.5537" y="25.166" width="5.04609" height="5.04609" transform="rotate(16.29 52.5537 25.166)" fill="#FF5630"/>
<rect opacity="0.3" x="50.8457" y="31.0127" width="5.04609" height="5.04609" transform="rotate(16.29 50.8457 31.0127)" fill="#FF5630"/>
<rect x="48.5107" y="19.0156" width="7.13796" height="24.1355" transform="rotate(4.6 48.5107 19.0156)" fill="white"/>
<rect x="49.5234" y="19.4883" width="5.04609" height="5.04609" transform="rotate(4.6 49.5234 19.4883)" fill="#00B8D9"/>
<rect opacity="0.5" x="49.0342" y="25.5596" width="5.04609" height="5.04609" transform="rotate(4.6 49.0342 25.5596)" fill="#00B8D9"/>
<rect opacity="0.3" x="48.5459" y="31.6328" width="5.04609" height="5.04609" transform="rotate(4.6 48.5459 31.6328)" fill="#00B8D9"/>
<rect x="45.3096" y="19.9824" width="7.13796" height="24.1355" transform="rotate(-2.61 45.3096 19.9824)" fill="white"/>
<rect x="46.3721" y="20.3242" width="5.04609" height="5.04609" transform="rotate(-2.61 46.3721 20.3242)" fill="#FFEB9C"/>
<rect opacity="0.5" x="46.8477" y="26.2168" width="5.0524" height="5.0524" transform="rotate(-2.86241 46.8477 26.2168)" fill="#FFEB9C"/>
<rect opacity="0.3" x="46.9268" y="32.4951" width="5.04609" height="5.04609" transform="rotate(-2.61 46.9268 32.4951)" fill="#FFEB9C"/>
<path d="M48.3369 51.7897L41.9949 54.2432L32.7258 57.8262C32.3755 57.1722 31.8598 56.2883 31.2216 55.2335C29.0261 51.5954 25.3935 45.9364 22.159 40.9632C18.5153 35.3575 15.3789 30.6272 15.3789 30.6272L17.6492 29.9732L36.1949 24.5889L48.3369 51.7897Z" fill="#F4F6F8"/>
<path opacity="0.1" d="M48.3371 51.7897L41.9951 54.2432C38.4524 54.9813 34.837 55.3135 31.2191 55.2335C29.0235 51.5954 25.391 45.9364 22.1565 40.9632L17.6504 29.9694L36.1951 24.5889L48.3371 51.7897Z" fill="#1E1E1E"/>
<path d="M53.0553 50.2627C53.0553 50.2627 43.2033 56.0908 28.4938 54.7725L16.7676 26.1833L22.3873 25.2172L41.8149 21.8809L52.8395 49.7068L53.0553 50.2627Z" fill="#FFEB9C"/>
<path opacity="0.1" d="M52.8362 49.7107C50.5163 49.8247 47.8321 49.8134 45.132 49.4911C42.2096 49.1473 39.2703 48.4391 36.7505 47.1404C34.6437 46.0557 32.8424 44.8757 31.2718 43.4603C27.1862 39.7857 24.658 34.5294 22.3877 25.2211L41.8153 21.8848L52.8362 49.7107Z" fill="#FF5630"/>
<path d="M60.0637 48.1124C60.0637 48.1124 52.8015 49.5343 45.4094 48.6589C42.487 48.3151 39.5477 47.6069 37.0279 46.3083C34.9211 45.2235 33.1207 44.0435 31.5492 42.6281C26.4929 38.079 23.8227 31.1074 21.0693 17.0286C21.0693 17.0286 33.1422 19.9426 45.0805 13.5596C45.0768 13.5642 49.1008 38.676 60.0637 48.1124Z" fill="white"/>
<g opacity="0.3">
<path d="M27.3135 22.1965C27.3135 22.1965 37.131 21.6416 39.8722 19.5254L40.2879 20.8614C40.2879 20.8614 33.8012 23.7231 27.3135 23.7577V22.1965Z" fill="#FFEB9C"/>
<path d="M27.3135 28.7926C27.3135 28.7926 36.8189 28.2722 44.0008 24.8032L44.2437 25.3581C44.2437 25.3581 38.5446 28.6851 27.3135 29.5559V28.7926Z" fill="#FFEB9C"/>
<path d="M28.0789 31.3629C28.0789 31.3629 37.5843 30.8425 44.7652 27.3734L45.0082 27.9284C45.0082 27.9284 39.309 31.2545 28.0789 32.1262V31.3629Z" fill="#FFEB9C"/>
<path d="M28.843 33.9368C28.843 33.9368 38.3485 33.4164 45.5303 29.9474L45.7723 30.5023C45.7723 30.5023 40.0732 33.8293 28.843 34.7001V33.9368Z" fill="#FFEB9C"/>
<path d="M29.6081 36.5108C29.6081 36.5108 39.1135 35.9904 46.2945 32.5214L46.5374 33.0763C46.5374 33.0763 40.8382 36.4033 29.6081 37.2741V36.5108Z" fill="#FFEB9C"/>
<path d="M30.3723 39.0856C30.3723 39.0856 39.8777 38.5652 47.0596 35.0962L47.3016 35.6512C47.3016 35.6512 41.6024 38.9773 30.3723 39.8489V39.0856Z" fill="#FFEB9C"/>
</g>
<path d="M97.209 71.0455C97.209 71.0455 93.2589 70.8072 93.7241 73.5755C93.7241 73.5755 93.6307 74.0642 94.0754 74.2865C94.0754 74.2865 94.082 74.081 94.48 74.1511C94.6219 74.1749 94.7662 74.1818 94.9097 74.1716C95.1035 74.1586 95.2876 74.0825 95.4339 73.9549C95.4339 73.9549 96.5447 73.4961 96.9764 71.6817C96.9764 71.6817 97.2959 71.2856 97.2828 71.1838L96.6167 71.464C96.6167 71.464 96.8447 71.9452 96.6653 72.3441C96.6653 72.3441 96.6438 71.4818 96.5158 71.5033C96.4896 71.5033 96.1692 71.6696 96.1692 71.6696C96.1692 71.6696 96.5606 72.5104 96.2626 73.1159C96.2626 73.1159 96.3747 72.0835 96.044 71.7303L95.5768 72.0041C95.5768 72.0041 96.0346 72.8692 95.7244 73.5755C95.7244 73.5755 95.8039 72.4927 95.4778 72.0704L95.0527 72.4021C95.0527 72.4021 95.4834 73.2551 95.2209 73.8409C95.2209 73.8409 95.1863 72.5796 94.9602 72.4843C94.9602 72.4843 94.5865 72.8122 94.5323 72.9514C94.5323 72.9514 94.8266 73.5699 94.6435 73.8969C94.6435 73.8969 94.5314 73.0561 94.4398 73.0561C94.4398 73.0561 94.0661 73.6166 94.0306 73.9904C94.0306 73.9904 94.0465 73.4223 94.3501 72.9991C94.1362 73.0399 93.9388 73.1422 93.7821 73.2934C93.7821 73.2934 93.84 72.8991 94.4417 72.8655C94.4417 72.8655 94.7481 72.4432 94.8294 72.417C94.8294 72.417 94.2315 72.3675 93.8689 72.5282C93.8689 72.5282 94.1885 72.1545 94.9396 72.3255L95.3591 71.9835C95.3591 71.9835 94.5715 71.8751 94.238 71.9947C94.238 71.9947 94.622 71.6658 95.4722 71.9013L95.9291 71.6285C95.9291 71.6285 95.2582 71.4837 94.8584 71.535C94.8584 71.535 95.2797 71.3071 96.0636 71.5537L96.3897 71.4071C96.3897 71.4071 95.8982 71.3136 95.7543 71.2949C95.6105 71.2763 95.6021 71.2407 95.6021 71.2407C95.9136 71.1882 96.2337 71.2238 96.5261 71.3435C96.5261 71.3435 97.2202 71.0894 97.209 71.0455Z" fill="#FFEB9C"/>
<path d="M99.0488 61.9072C99.0488 61.9072 96.8224 61.7727 97.0868 63.3339C97.0588 63.496 97.1384 63.6578 97.2839 63.7347C97.2839 63.7347 97.2886 63.6188 97.5128 63.6581C97.5927 63.6712 97.674 63.675 97.7548 63.6693C97.8638 63.6622 97.9676 63.6195 98.05 63.5478C98.05 63.5478 98.676 63.289 98.9198 62.266C98.9198 62.266 99.1001 62.0427 99.0927 61.9857L98.719 62.1454C98.719 62.1454 98.847 62.4173 98.7461 62.6425C98.7461 62.6425 98.7339 62.1557 98.662 62.1669C98.647 62.1669 98.4667 62.2604 98.4667 62.2604C98.4667 62.2604 98.6872 62.7275 98.5209 63.076C98.5209 63.076 98.5844 62.4939 98.3976 62.294L98.1332 62.4491C98.1332 62.4491 98.391 62.9368 98.2163 63.3348C98.2163 63.3348 98.2612 62.7238 98.0771 62.4865L97.8379 62.6733C97.8379 62.6733 98.0799 63.1545 97.9314 63.4843C97.9314 63.4843 97.9117 62.7733 97.7847 62.72C97.6939 62.797 97.6127 62.8845 97.5427 62.9807C97.5427 62.9807 97.709 63.3301 97.6062 63.5142C97.6062 63.5142 97.5427 63.0405 97.4913 63.0386C97.4913 63.0386 97.282 63.3516 97.2605 63.5665C97.2707 63.3671 97.3328 63.1738 97.4409 63.0059C97.32 63.0287 97.2086 63.0865 97.1204 63.1722C97.1204 63.1722 97.1531 62.9499 97.4941 62.9312C97.4941 62.9312 97.6669 62.6929 97.7127 62.678C97.7127 62.678 97.3755 62.65 97.1708 62.7406C97.1708 62.7406 97.3512 62.5313 97.7744 62.6266L98.0117 62.4332C98.0117 62.4332 97.567 62.3725 97.3792 62.4397C97.3792 62.4397 97.5959 62.2529 98.0752 62.3893L98.3331 62.2351C98.1347 62.1917 97.9315 62.1744 97.7286 62.1838C97.7286 62.1838 97.9669 62.0548 98.4078 62.194L98.5947 62.1118C98.5947 62.1118 98.3144 62.0567 98.2359 62.0483C98.1575 62.0399 98.15 62.0175 98.15 62.0175C98.3258 61.9882 98.5062 62.0083 98.6713 62.0754C98.6713 62.0754 99.0562 61.9315 99.0488 61.9072Z" fill="#FFEB9C"/>
<path d="M85.9051 63.2619C85.9051 63.2619 83.2162 63.0993 83.5339 64.9838C83.5001 65.1797 83.5962 65.3751 83.7721 65.4677C83.7721 65.4677 83.7721 65.3276 84.0524 65.3743C84.149 65.3906 84.2472 65.3953 84.3449 65.3883C84.4768 65.3795 84.6022 65.3277 84.7018 65.2407C84.7018 65.2407 85.4576 64.9287 85.7519 63.6935C85.7519 63.6935 85.9696 63.4244 85.9602 63.3544L85.5015 63.5487C85.5015 63.5487 85.6566 63.8757 85.5342 64.1476C85.5342 64.1476 85.5193 63.5609 85.4324 63.5739C85.4146 63.5739 85.1969 63.6879 85.1969 63.6879C85.1969 63.6879 85.4632 64.2578 85.2623 64.6727C85.2623 64.6727 85.3389 63.9701 85.1138 63.729L84.7942 63.9159C84.7942 63.9159 85.1054 64.5054 84.8942 64.9856C84.8942 64.9856 84.9484 64.2485 84.727 63.9579L84.4374 64.184C84.4374 64.184 84.7307 64.7642 84.5513 65.1632C84.5513 65.1632 84.5289 64.3045 84.3748 64.2401C84.3748 64.2401 84.1216 64.4634 84.0833 64.5549C84.0833 64.5549 84.2832 64.9763 84.1589 65.1987C84.1589 65.1987 84.0823 64.6269 84.0197 64.6241C84.0197 64.6241 83.7684 65.0034 83.7394 65.2622C83.752 65.0222 83.8271 64.7897 83.9571 64.5876C83.8116 64.6154 83.6775 64.6852 83.5713 64.7885C83.5713 64.7885 83.6105 64.5204 84.0197 64.497C84.0197 64.497 84.2281 64.2092 84.2841 64.1924C84.2841 64.1924 83.8768 64.1579 83.6301 64.2672C83.6301 64.2672 83.8469 64.0149 84.3579 64.1298L84.6438 63.8963C84.6438 63.8963 84.1085 63.8234 83.8805 63.9037C83.8805 63.9037 84.1421 63.6804 84.7214 63.8439L85.0325 63.6571C85.0325 63.6571 84.5756 63.559 84.3028 63.5945C84.3028 63.5945 84.5906 63.4394 85.1231 63.6076L85.3455 63.5076C85.3455 63.5076 85.011 63.4422 84.9129 63.4319C84.8148 63.4216 84.8101 63.3946 84.8101 63.3946C85.0221 63.3586 85.2398 63.3826 85.4389 63.4637C85.4389 63.4637 85.9135 63.2908 85.9051 63.2619Z" fill="#FFEB9C"/>
<rect x="62.541" y="20.3164" width="15.9455" height="28.535" rx="3.55292" transform="rotate(-71.99 62.541 20.3164)" fill="white"/>
<g opacity="0.24">
<path d="M73.4341 13.5959C73.4341 15.2141 72.1223 16.5259 70.5041 16.5259C68.886 16.5259 67.5742 15.2141 67.5742 13.5959C67.5742 11.9778 68.886 10.666 70.5041 10.666C72.1223 10.666 73.4341 11.9778 73.4341 13.5959Z" fill="#FFEB9C"/>
<path d="M77.5143 13.0685L77.7625 12.3053L89.9022 16.252L89.6541 17.0153L77.5143 13.0685Z" fill="#FFEB9C"/>
<path d="M76.8816 15.0144L77.1297 14.2511L83.3137 16.2616L83.0656 17.0249L76.8816 15.0144Z" fill="#FFEB9C"/>
<path d="M76.2477 16.9615L76.4959 16.1983L86.4978 19.4501L86.2497 20.2133L76.2477 16.9615Z" fill="#FFEB9C"/>
<path d="M75.6153 18.9079L75.8635 18.1447L88.0032 22.0914L87.7551 22.8547L75.6153 18.9079Z" fill="#FFEB9C"/>
</g>
<rect opacity="0.5" x="83.25" y="25.2852" width="1.55185" height="3.53254" transform="rotate(-71.99 83.25 25.2852)" fill="#FFEB9C"/>
<path d="M62.5753 49.6291C61.1816 48.7332 60.7781 46.877 61.674 45.4833L66.9296 37.308C67.8255 35.9143 69.6817 35.5108 71.0754 36.4068L86.6121 46.3947C88.0058 47.2906 88.4093 49.1468 87.5134 50.5405L82.2578 58.7157C81.3619 60.1095 79.5057 60.513 78.112 59.617L62.5753 49.6291Z" fill="white"/>
<path d="M72.8438 52.2409L78.0815 43.9971L78.8914 44.5116L73.6536 52.7555L72.8438 52.2409Z" fill="#F4F6F8"/>
<path d="M74.5738 53.3393L79.8116 45.0954L80.6214 45.61L75.3837 53.8538L74.5738 53.3393Z" fill="#F4F6F8"/>
<path d="M63.1016 47.084L65.4865 43.3304L66.3697 43.8915L63.9848 47.6452L63.1016 47.084Z" fill="#C4CDD5"/>
<path d="M65.9244 47.8444L71.1622 39.6006L71.9721 40.1151L66.7343 48.359L65.9244 47.8444Z" fill="#C4CDD5"/>
<path d="M67.6545 48.9426L72.8922 40.6988L73.7021 41.2133L68.4644 49.4572L67.6545 48.9426Z" fill="#C4CDD5"/>
<path d="M69.3842 50.0426L74.622 41.7988L75.4319 42.3133L70.1941 50.5572L69.3842 50.0426Z" fill="#C4CDD5"/>
<path d="M71.1741 51.6363L76.4483 43.432L77.2543 43.9501L71.9801 52.1545L71.1741 51.6363Z" fill="#C4CDD5"/>
<path d="M81.8369 48.6556L83.1932 46.5209L85.3279 47.8772L83.9716 50.0119L81.8369 48.6556Z" fill="#C4CDD5"/>
<path d="M59.7734 33.9874L45.4713 34.1415C44.936 34.1471 44.5048 34.5825 44.5044 35.1178V36.2997C44.504 36.8297 44.0812 37.2629 43.5514 37.2761L33.2312 37.5236C32.7812 37.5349 32.3817 37.237 32.2642 36.8024L31.7794 35.0207C31.6631 34.5909 31.2707 34.2942 30.8254 34.2994L17.04 34.448C16.7542 34.4508 16.4839 34.5787 16.3005 34.798C16.1172 35.0173 16.0392 35.306 16.087 35.5878L21.633 68.2281C21.7125 68.6965 22.1174 69.0399 22.5925 69.0419L66.1434 69.2287C66.4353 69.2297 66.7123 69.1002 66.8987 68.8757C67.0851 68.6511 67.1614 68.355 67.1067 68.0683L60.7423 34.7806C60.6537 34.3166 60.2457 33.9826 59.7734 33.9874V33.9874Z" fill="url(#paint0_linear_12872_3572)"/>
<g opacity="0.2">
<path d="M97.2839 74.5271C97.2839 74.7882 96.0324 74.9999 94.4885 74.9999C92.9447 74.9999 91.6931 74.7882 91.6931 74.5271C91.6931 74.266 92.9447 74.0544 94.4885 74.0544C96.0324 74.0544 97.2839 74.266 97.2839 74.5271Z" fill="#FFEB9C"/>
<path d="M99.0928 63.8697C99.0928 64.0167 98.3872 64.1359 97.5167 64.1359C96.6462 64.1359 95.9406 64.0167 95.9406 63.8697C95.9406 63.7226 96.6462 63.6034 97.5167 63.6034C98.3872 63.6034 99.0928 63.7226 99.0928 63.8697Z" fill="#FFEB9C"/>
<path d="M85.9569 65.6318C85.9569 65.8093 85.1048 65.9532 84.0537 65.9532C83.0026 65.9532 82.1506 65.8093 82.1506 65.6318C82.1506 65.4543 83.0026 65.3104 84.0537 65.3104C85.1048 65.3104 85.9569 65.4543 85.9569 65.6318Z" fill="#FFEB9C"/>
<path d="M14.5127 62.0824C14.5127 62.1974 13.8347 62.2907 12.9982 62.2907C12.1618 62.2907 11.4838 62.1974 11.4838 62.0824C11.4838 61.9673 12.1618 61.874 12.9982 61.874C13.8347 61.874 14.5127 61.9673 14.5127 62.0824Z" fill="#FFEB9C"/>
<path d="M8.71164 62.6701C8.71164 62.7851 8.03358 62.8784 7.19716 62.8784C6.36073 62.8784 5.68268 62.7851 5.68268 62.6701C5.68268 62.555 6.36073 62.4617 7.19716 62.4617C8.03358 62.4617 8.71164 62.555 8.71164 62.6701Z" fill="#FFEB9C"/>
<path d="M10.5953 64.3452C10.5953 64.4268 10.1134 64.4929 9.51899 64.4929C8.92456 64.4929 8.44269 64.4268 8.44269 64.3452C8.44269 64.2637 8.92456 64.1976 9.51899 64.1976C10.1134 64.1976 10.5953 64.2637 10.5953 64.3452Z" fill="#FFEB9C"/>
<path d="M4.57448 64.1976C4.57448 64.2791 4.0926 64.3452 3.49818 64.3452C2.90375 64.3452 2.42188 64.2791 2.42188 64.1976C2.42188 64.1161 2.90375 64.05 3.49818 64.05C4.0926 64.05 4.57448 64.1161 4.57448 64.1976Z" fill="#FFEB9C"/>
</g>
<path d="M2.90458 63.8611C2.83689 63.8058 2.78768 63.7312 2.7635 63.6472C2.73968 63.5602 2.78133 63.4686 2.86254 63.4295C2.95597 63.3949 3.0494 63.4575 3.12414 63.5229C3.19888 63.5883 3.2839 63.6574 3.37733 63.6416C3.27647 63.5502 3.23105 63.4125 3.25774 63.2791C3.26157 63.2519 3.2729 63.2263 3.29044 63.2052C3.34089 63.1511 3.43245 63.1744 3.49318 63.2174C3.68004 63.3519 3.7389 63.6126 3.73984 63.848C3.74919 63.7617 3.74919 63.6746 3.73984 63.5883C3.73482 63.4999 3.77403 63.4149 3.84448 63.3613C3.88996 63.3364 3.94124 63.3242 3.99303 63.3258C4.07985 63.3133 4.16785 63.3385 4.23501 63.3949C4.30044 63.484 4.29659 63.6063 4.22567 63.6911C4.15409 63.7714 4.06943 63.839 3.97528 63.891C3.90381 63.934 3.84285 63.9924 3.79683 64.062C3.79118 64.0713 3.78678 64.0814 3.78375 64.0919H3.23999C3.11827 64.0305 3.00544 63.9528 2.90458 63.8611Z" fill="#FFEB9C"/>
<path d="M12.3828 61.8225C12.315 61.7677 12.2657 61.6933 12.2418 61.6095C12.2178 61.5228 12.259 61.4313 12.3399 61.3918C12.4333 61.3572 12.5267 61.4198 12.6015 61.4852C12.6762 61.5506 12.7603 61.6216 12.8565 61.6076C12.7556 61.5166 12.7099 61.3794 12.736 61.246C12.7401 61.2188 12.7518 61.1932 12.7696 61.1722C12.8201 61.118 12.9116 61.1414 12.9724 61.1834C13.1639 61.3189 13.2181 61.5796 13.219 61.815C13.2284 61.7284 13.2284 61.641 13.219 61.5544C13.2106 61.4671 13.2455 61.3812 13.3125 61.3245C13.3581 61.3003 13.4093 61.2884 13.461 61.29C13.5477 61.2778 13.6355 61.3025 13.703 61.3582C13.7687 61.4477 13.7644 61.5705 13.6927 61.6553C13.6217 61.7357 13.5373 61.8034 13.4433 61.8552C13.3718 61.8978 13.3108 61.9559 13.2648 62.0252C13.2593 62.035 13.255 62.0453 13.2517 62.0561H12.7201C12.5975 61.9941 12.484 61.9155 12.3828 61.8225Z" fill="#FFEB9C"/>
<path d="M9.22418 63.8611C9.15654 63.8056 9.10708 63.731 9.08217 63.6471C9.05834 63.5602 9.1 63.4686 9.1812 63.4295C9.27463 63.3949 9.36806 63.4575 9.4428 63.5229C9.51755 63.5883 9.6007 63.6593 9.69786 63.6462C9.59714 63.5547 9.55145 63.4173 9.57734 63.2837C9.58149 63.2565 9.59313 63.2309 9.61098 63.2099C9.66143 63.1557 9.75299 63.1791 9.81372 63.222C10.0052 63.3566 10.0585 63.6172 10.0604 63.8527C10.0697 63.7664 10.0697 63.6793 10.0604 63.593C10.053 63.5048 10.0898 63.4188 10.1585 63.3631C10.2039 63.3382 10.2552 63.3259 10.307 63.3276C10.3938 63.3153 10.4818 63.3404 10.549 63.3968C10.6145 63.486 10.6103 63.6085 10.5387 63.6929C10.4675 63.7732 10.3831 63.8408 10.2893 63.8929C10.2178 63.9359 10.1568 63.9943 10.1108 64.0638C10.1052 64.0732 10.1008 64.0832 10.0977 64.0937H9.55585C9.43543 64.0313 9.32389 63.9531 9.22418 63.8611Z" fill="#FFEB9C"/>
<g opacity="0.08">
<path d="M4.04173 8.43848C4.04173 9.55458 3.13696 10.4593 2.02087 10.4593C0.904772 10.4593 0 9.55458 0 8.43848C0 7.32239 0.904772 6.41762 2.02087 6.41762C3.13696 6.41762 4.04173 7.32239 4.04173 8.43848Z" fill="#FFEB9C"/>
<path d="M101.216 24.5876C101.216 25.7037 100.311 26.6085 99.1952 26.6085C98.0791 26.6085 97.1744 25.7037 97.1744 24.5876C97.1744 23.4715 98.0791 22.5668 99.1952 22.5668C100.311 22.5668 101.216 23.4715 101.216 24.5876Z" fill="#FFEB9C"/>
<path d="M64.8892 2.02087C64.8892 3.13696 63.9844 4.04173 62.8683 4.04173C61.7522 4.04173 60.8475 3.13696 60.8475 2.02087C60.8475 0.904772 61.7522 0 62.8683 0C63.9844 0 64.8892 0.904772 64.8892 2.02087Z" fill="#FFEB9C"/>
<path d="M9.44937 19.5874C9.44937 21.4578 7.93305 22.9742 6.06258 22.9742C4.1921 22.9742 2.67578 21.4578 2.67578 19.5874C2.67578 17.7169 4.1921 16.2006 6.06258 16.2006C7.93305 16.2006 9.44937 17.7169 9.44937 19.5874Z" fill="#FFEB9C"/>
</g>
<path fill-rule="evenodd" clip-rule="evenodd" d="M40.0087 46.8467C37.5165 46.8467 35.4961 48.867 35.4961 51.3593C35.4961 53.8515 37.5165 55.8719 40.0087 55.8719C42.501 55.8719 44.5213 53.8515 44.5213 51.3593C44.5213 48.867 42.501 46.8467 40.0087 46.8467V46.8467Z" fill="#E6D48C"/>
<path opacity="0.72" fill-rule="evenodd" clip-rule="evenodd" d="M40.0092 47.3721C42.2115 47.3721 43.9969 49.1574 43.9969 51.3598C43.9969 53.5621 42.2115 55.3474 40.0092 55.3474C37.8068 55.3474 36.0215 53.5621 36.0215 51.3598C36.0234 49.1582 37.8076 47.374 40.0092 47.3721" fill="#FFEB9C"/>
<path fill-rule="evenodd" clip-rule="evenodd" d="M38.1427 51.6891L37.9245 51.4761C37.8773 51.433 37.8506 51.3728 37.8506 51.3098C37.8506 51.2467 37.8773 51.1865 37.9245 51.1434L39.8391 49.2733C39.8832 49.2273 39.945 49.2012 40.0096 49.2012C40.0742 49.2012 40.1359 49.2273 40.18 49.2733L42.0946 51.1417C42.1409 51.1853 42.167 51.2454 42.167 51.3081C42.167 51.3708 42.1409 51.4309 42.0946 51.4745L41.8764 51.6874C41.8317 51.7326 41.7702 51.7581 41.7059 51.7581C41.6416 51.7581 41.5801 51.7326 41.5354 51.6874L40.4034 50.5228V53.2863C40.4038 53.3475 40.3793 53.4063 40.3351 53.4497C40.2909 53.4932 40.2308 53.5176 40.1681 53.5176H39.8527C39.7218 53.5176 39.6157 53.414 39.6157 53.2863V50.5261L38.4837 51.6908C38.4388 51.7357 38.3771 51.7609 38.3129 51.7606C38.2486 51.7603 38.1872 51.7345 38.1427 51.6891V51.6891Z" fill="#E6D48C"/>
<path d="M7.16352 62.624C7.16352 62.624 9.28716 55.6617 6.83091 52.8728C4.99317 50.7866 2.9069 51.036 1.97261 51.2939C1.48369 51.4245 1.07663 51.7629 0.858941 52.2198C0.53194 52.9242 0.590801 54.0678 2.89662 55.4029C6.75617 57.6377 6.99628 60.7031 6.99628 60.7031L7.16352 62.624Z" fill="#FFEB9C"/>
<path d="M7.2498 62.6791C7.2498 62.6791 4.76179 57.619 4.07882 57.7274C3.75462 57.7806 3.60514 58.1011 3.53694 58.4206C3.45308 58.8352 3.50043 59.2656 3.67241 59.652C4.02557 60.4648 4.97387 62.0017 7.2498 62.6791Z" fill="#FFEB9C"/>
<path d="M7.17572 62.6791C7.17572 62.6791 9.6628 57.619 10.3458 57.7274C10.6709 57.7806 10.8204 58.1011 10.8876 58.4206C10.9715 58.8352 10.9242 59.2656 10.7522 59.652C10.399 60.4648 9.44978 62.0017 7.17572 62.6791Z" fill="#FFEB9C"/>
<path fill-rule="evenodd" clip-rule="evenodd" d="M2.2321 52.2589C2.24501 52.2177 2.28884 52.1948 2.33002 52.2077L2.30665 52.2822C2.33002 52.2077 2.33002 52.2077 2.33002 52.2077L2.33049 52.2078L2.33153 52.2082L2.3353 52.2094L2.34946 52.2141C2.36179 52.2182 2.37982 52.2244 2.40312 52.2328C2.44972 52.2497 2.51745 52.2753 2.60288 52.3108C2.77371 52.3818 3.01548 52.4925 3.30087 52.6515C3.87152 52.9696 4.61748 53.4817 5.3193 54.2584C6.72551 55.8147 7.94654 58.4246 7.24201 62.6377C7.23489 62.6803 7.19462 62.709 7.15206 62.7019C7.10951 62.6948 7.08078 62.6545 7.0879 62.6119C7.78479 58.4445 6.57668 55.8831 5.20337 54.3632C4.51544 53.6019 3.78406 53.0997 3.2248 52.788C2.94523 52.6322 2.70891 52.5241 2.5429 52.4551C2.4599 52.4206 2.3945 52.3958 2.3501 52.3798C2.32789 52.3718 2.31094 52.366 2.29967 52.3622L2.28706 52.358L2.28405 52.357L2.28338 52.3568C2.24222 52.3439 2.2192 52.3 2.2321 52.2589Z" fill="#E6D48C"/>
<path fill-rule="evenodd" clip-rule="evenodd" d="M6.02826 52.9403C6.05235 52.976 6.04292 53.0245 6.0072 53.0487L6.00694 53.0488L6.00554 53.0498L5.9993 53.0542C5.99368 53.0582 5.9852 53.0644 5.97437 53.0727C5.95268 53.0892 5.9216 53.1141 5.88496 53.1467C5.81151 53.2121 5.71663 53.3077 5.63026 53.429C5.45765 53.6713 5.3228 54.0096 5.45033 54.4152C5.46327 54.4563 5.4404 54.5002 5.39924 54.5131C5.35807 54.5261 5.31422 54.5032 5.30127 54.462C5.15412 53.9941 5.3131 53.605 5.503 53.3384C5.59788 53.2051 5.70142 53.1009 5.78108 53.03C5.82099 52.9945 5.85514 52.9671 5.87954 52.9485C5.89174 52.9392 5.90153 52.932 5.9084 52.9271L5.91647 52.9214L5.91875 52.9198L5.91944 52.9194L5.91975 52.9192C5.91975 52.9192 5.91981 52.9191 5.96195 52.9817L5.91975 52.9192C5.95553 52.8951 6.00414 52.9045 6.02826 52.9403Z" fill="#E6D48C"/>
<path fill-rule="evenodd" clip-rule="evenodd" d="M2.99012 53.5563L2.99087 53.5555L2.99458 53.5519C2.99802 53.5486 3.00337 53.5436 3.01053 53.5371C3.02488 53.5242 3.04642 53.5058 3.07435 53.4843C3.13037 53.4413 3.21125 53.3869 3.31062 53.3414C3.5089 53.2507 3.77635 53.1966 4.07046 53.3323C4.10964 53.3504 4.15605 53.3333 4.17413 53.2941C4.19221 53.255 4.1751 53.2085 4.13592 53.1905C3.78818 53.03 3.47123 53.096 3.24558 53.1994C3.13298 53.2509 3.04201 53.3121 2.97917 53.3604C2.94767 53.3846 2.92303 53.4057 2.90605 53.421C2.89756 53.4286 2.89096 53.4348 2.88637 53.4392L2.88099 53.4445L2.87944 53.446L2.87896 53.4465L2.87872 53.4467C2.87872 53.4467 2.87867 53.4468 2.9344 53.5015L2.87872 53.4467C2.84848 53.4775 2.84887 53.527 2.87964 53.5572C2.91042 53.5875 2.95988 53.5871 2.99012 53.5563Z" fill="#E6D48C"/>
<path fill-rule="evenodd" clip-rule="evenodd" d="M5.44456 56.2676L5.4449 56.2675L5.44654 56.2667L5.4536 56.2632C5.45993 56.2602 5.46944 56.2557 5.48174 56.2502C5.50637 56.2391 5.54205 56.2237 5.5857 56.207C5.67338 56.1735 5.79129 56.1352 5.91505 56.1146C6.03978 56.0938 6.16393 56.092 6.26765 56.1253C6.36774 56.1573 6.45168 56.2226 6.5021 56.3461C6.51841 56.386 6.56401 56.4052 6.60396 56.3889C6.64391 56.3726 6.66307 56.327 6.64676 56.287C6.57759 56.1176 6.4561 56.0216 6.31532 55.9765C6.17817 55.9325 6.026 55.9377 5.88937 55.9605C5.75176 55.9834 5.62325 56.0253 5.52986 56.0611C5.48296 56.079 5.44445 56.0956 5.4175 56.1077C5.40402 56.1138 5.39341 56.1188 5.38606 56.1223L5.37753 56.1265L5.37519 56.1276L5.37452 56.128L5.37423 56.1281C5.37423 56.1281 5.37418 56.1281 5.40936 56.1979L5.37423 56.1281C5.33571 56.1475 5.32019 56.1946 5.33962 56.2331C5.35905 56.2716 5.40605 56.287 5.44456 56.2676Z" fill="#E6D48C"/>
<path fill-rule="evenodd" clip-rule="evenodd" d="M4.05338 58.6262C4.0889 58.6017 4.13755 58.6107 4.16204 58.6462L4.09773 58.6906L4.03341 58.7349C4.00892 58.6994 4.01786 58.6507 4.05338 58.6262ZM4.09773 58.6906C4.03341 58.7349 4.03341 58.7349 4.03341 58.7349L4.06295 58.7776C4.08223 58.8054 4.11056 58.8462 4.14678 58.8982C4.21923 59.0022 4.32327 59.1508 4.44968 59.3298C4.70248 59.6875 5.0449 60.1665 5.40319 60.6507C5.76132 61.1347 6.13598 61.6249 6.45311 62.005C6.61158 62.1949 6.75666 62.3585 6.87876 62.4803C6.93977 62.5412 6.99607 62.5927 7.0462 62.6322C7.09488 62.6705 7.14334 62.702 7.18819 62.7168C7.22917 62.7303 7.27334 62.708 7.28684 62.6671C7.30035 62.6261 7.27808 62.5819 7.2371 62.5684C7.21888 62.5624 7.18783 62.5448 7.14284 62.5094C7.09931 62.4751 7.04779 62.4283 6.98914 62.3697C6.87191 62.2527 6.73029 62.0933 6.57308 61.9049C6.25887 61.5283 5.88633 61.041 5.5288 60.5577C5.17142 60.0747 4.8297 59.5968 4.57729 59.2396C4.4511 59.061 4.34726 58.9126 4.27498 58.8089C4.23884 58.757 4.21059 58.7163 4.19138 58.6886L4.16204 58.6462C4.16204 58.6462 4.16204 58.6462 4.09773 58.6906Z" fill="#E6D48C"/>
<path fill-rule="evenodd" clip-rule="evenodd" d="M3.77943 59.2819C3.77943 59.2388 3.81441 59.2038 3.85755 59.2038H4.46671C4.50986 59.2038 4.54484 59.2388 4.54484 59.2819C4.54484 59.3251 4.50986 59.3601 4.46671 59.3601H3.85755C3.81441 59.3601 3.77943 59.3251 3.77943 59.2819Z" fill="#E6D48C"/>
<path fill-rule="evenodd" clip-rule="evenodd" d="M4.50918 60.6632C4.51103 60.6201 4.54748 60.5867 4.59059 60.5885L5.54636 60.6296C5.58947 60.6315 5.62291 60.6679 5.62106 60.711C5.6192 60.7541 5.58276 60.7876 5.53965 60.7857L4.58387 60.7446C4.54076 60.7428 4.50732 60.7063 4.50918 60.6632Z" fill="#E6D48C"/>
<path fill-rule="evenodd" clip-rule="evenodd" d="M5.18507 59.482C5.22731 59.4908 5.25443 59.5322 5.24563 59.5744L5.14192 60.0724C5.13313 60.1146 5.09175 60.1417 5.04951 60.1329C5.00727 60.1241 4.98016 60.0828 4.98895 60.0405L5.09266 59.5425C5.10146 59.5003 5.14283 59.4732 5.18507 59.482Z" fill="#E6D48C"/>
<path fill-rule="evenodd" clip-rule="evenodd" d="M6.18795 60.9949C6.23107 60.9967 6.26457 61.0331 6.26279 61.0762L6.2441 61.5284C6.24232 61.5715 6.20593 61.605 6.16282 61.6032C6.11971 61.6015 6.0862 61.5651 6.08798 61.522L6.10667 61.0698C6.10845 61.0267 6.14484 60.9931 6.18795 60.9949Z" fill="#E6D48C"/>
<path fill-rule="evenodd" clip-rule="evenodd" d="M10.2642 58.6461C10.2888 58.6106 10.3374 58.6018 10.3729 58.6263C10.4084 58.6508 10.4173 58.6995 10.3928 58.735L10.3285 58.6906L10.2642 58.6461ZM10.2642 58.6461C10.2642 58.6461 10.2642 58.6461 10.3285 58.6906C10.3928 58.735 10.3928 58.735 10.3928 58.735L10.3632 58.7777C10.3439 58.8055 10.3155 58.8463 10.2792 58.8983C10.2066 59.0022 10.1024 59.1509 9.97571 59.3298C9.72246 59.6876 9.37949 60.1665 9.0208 60.6507C8.66227 61.1347 8.28736 61.6249 7.97037 62.005C7.81199 62.1949 7.66708 62.3584 7.54531 62.4803C7.48446 62.5411 7.42836 62.5926 7.37848 62.6321C7.33007 62.6704 7.28187 62.7019 7.23732 62.7167C7.19638 62.7303 7.15215 62.7082 7.13853 62.6673C7.12491 62.6263 7.14705 62.5821 7.18799 62.5685C7.20593 62.5625 7.23674 62.545 7.28156 62.5095C7.32491 62.4752 7.37627 62.4284 7.43479 62.3698C7.55176 62.2528 7.69323 62.0933 7.85039 61.9049C8.16448 61.5283 8.5373 61.0409 8.89525 60.5577C9.25304 60.0747 9.59531 59.5968 9.84818 59.2395C9.9746 59.0609 10.0786 58.9125 10.1511 58.8088C10.1873 58.757 10.2156 58.7163 10.2348 58.6886L10.2642 58.6461Z" fill="#E6D48C"/>
<path fill-rule="evenodd" clip-rule="evenodd" d="M9.88111 59.2819C9.88111 59.2388 9.91609 59.2038 9.95924 59.2038H10.5684C10.6115 59.2038 10.6465 59.2388 10.6465 59.2819C10.6465 59.3251 10.6115 59.3601 10.5684 59.3601H9.95924C9.91609 59.3601 9.88111 59.3251 9.88111 59.2819Z" fill="#E6D48C"/>
<path fill-rule="evenodd" clip-rule="evenodd" d="M9.91671 60.6632C9.91857 60.7063 9.88512 60.7428 9.84202 60.7446L8.88624 60.7857C8.84313 60.7876 8.80668 60.7541 8.80483 60.711C8.80298 60.6679 8.83642 60.6315 8.87953 60.6296L9.8353 60.5885C9.87841 60.5867 9.91486 60.6201 9.91671 60.6632Z" fill="#E6D48C"/>
<path fill-rule="evenodd" clip-rule="evenodd" d="M9.24079 59.482C9.28304 59.4732 9.32441 59.5003 9.33321 59.5425L9.43691 60.0405C9.44571 60.0828 9.4186 60.1241 9.37636 60.1329C9.33412 60.1417 9.29274 60.1146 9.28394 60.0724L9.18024 59.5744C9.17144 59.5322 9.19855 59.4908 9.24079 59.482Z" fill="#E6D48C"/>
<path fill-rule="evenodd" clip-rule="evenodd" d="M8.23801 60.9949C8.28112 60.9931 8.31752 61.0267 8.3193 61.0698L8.33798 61.522C8.33976 61.5651 8.30626 61.6015 8.26315 61.6032C8.22004 61.605 8.18365 61.5715 8.18187 61.5284L8.16318 61.0762C8.1614 61.0331 8.1949 60.9967 8.23801 60.9949Z" fill="#E6D48C"/>
<defs>
<linearGradient id="paint0_linear_12872_3572" x1="31.4459" y1="24.1371" x2="16.3093" y2="68.8324" gradientUnits="userSpaceOnUse">
<stop stop-color="#FFEB9C"/>
<stop offset="1" stop-color="#E6D48C"/>
</linearGradient>
</defs>
</svg>
