<svg width="42" height="26" viewBox="0 0 42 26" fill="none" xmlns="http://www.w3.org/2000/svg">
                  <rect
                    x="0.5"
                    y="0.5"
                    width="41"
                    height="25"
                    rx="6"
                    fill="#1E1E1E"
                    stroke="#FFEB9C"
                    stroke-width="1"
                  />
                  <g transform="translate(12.5 4.5)">
                    <path d="M13.8093 8.42492H12.7831C12.716 8.42512 12.6517 8.45187 12.6042 8.49933C12.5567 8.5468 12.53 8.61113 12.5298 8.67826C12.2554 15.2985 2.82171 15.2999 2.54663 8.6783C2.54835 7.35499 3.0748 6.08637 4.01052 5.15064C4.94625 4.21492 6.21487 3.68847 7.53818 3.68675C7.60532 3.68655 7.66965 3.65979 7.71712 3.61231C7.7646 3.56484 7.79136 3.50051 7.79156 3.43337V2.40719C7.79136 2.34005 7.7646 2.27572 7.71712 2.22824C7.66965 2.18077 7.60532 2.15401 7.53818 2.15381C5.80835 2.15564 4.14989 2.84362 2.9267 4.0668C1.70352 5.28997 1.01552 6.94842 1.01367 8.67826C1.37044 17.3321 13.7052 17.3334 14.0627 8.6783C14.0625 8.61116 14.0357 8.54683 13.9882 8.49936C13.9408 8.45188 13.8764 8.42512 13.8093 8.42492Z" fill="#FFEB9C"/>
                    <path d="M8.67818 1.01343C8.61104 1.01363 8.54671 1.04039 8.49924 1.08786C8.45176 1.13534 8.42501 1.19967 8.4248 1.26681V2.29299C8.42501 2.36013 8.45176 2.42446 8.49924 2.47193C8.54671 2.51941 8.61104 2.54617 8.67818 2.54637C10.0015 2.54809 11.2701 3.07454 12.2058 4.01026C13.1416 4.94599 13.668 6.21461 13.6697 7.53792C13.6699 7.60506 13.6967 7.66939 13.7442 7.71687C13.7916 7.76434 13.856 7.7911 13.9231 7.7913H14.9493C15.0164 7.7911 15.0808 7.76434 15.1282 7.71687C15.1757 7.66939 15.2025 7.60506 15.2027 7.53792C15.2008 5.80808 14.5129 4.14962 13.2897 2.92643C12.0665 1.70325 10.408 1.01526 8.67818 1.01343Z" fill="#FFEB9C"/>
                    <path d="M3.24821 8.67816C3.25004 9.81505 3.70265 10.9048 4.50679 11.7085C5.31093 12.5121 6.40097 12.9641 7.53786 12.9653C11.1203 12.9978 13.1466 8.68846 10.8571 5.96948L8.11049 9.17219C8.03565 9.25741 7.94286 9.325 7.8388 9.37011C7.73474 9.41522 7.62197 9.43673 7.50861 9.43309C7.39525 9.42945 7.2841 9.40077 7.18314 9.34908C7.08218 9.2974 6.99391 9.224 6.92468 9.13416L4.9838 6.54465C4.87795 6.40063 4.82618 6.22393 4.83759 6.04554C4.84899 5.86716 4.92283 5.6985 5.04617 5.56912C5.1695 5.43974 5.33445 5.35792 5.51208 5.33801C5.68972 5.3181 5.86869 5.36136 6.01761 5.46022L7.48212 6.4357C7.6474 6.29715 9.29909 4.91865 9.41539 4.82421C6.65934 3.41635 3.19295 5.56691 3.24821 8.67816Z" fill="#FFEB9C"/>
                    <path d="M5.38925 6.24092L7.33013 8.83042C7.35314 8.86046 7.38253 8.88502 7.41619 8.90231C7.44985 8.91961 7.48694 8.9292 7.52476 8.93042C7.56258 8.93163 7.6002 8.92442 7.6349 8.90932C7.6696 8.89422 7.70051 8.8716 7.7254 8.84309C8.65376 7.75995 10.7055 5.36359 11.6097 4.31017C11.6497 4.2617 11.6703 4.2001 11.6676 4.1373C11.6648 4.0745 11.6388 4.01496 11.5947 3.97019C11.5506 3.92543 11.4914 3.89862 11.4286 3.89496C11.3659 3.8913 11.304 3.91105 11.255 3.95038C10.9552 4.20058 9.75663 5.20315 9.47624 5.43264L7.51763 7.06693L5.73132 5.87859C5.6816 5.84641 5.62218 5.83267 5.56338 5.83975C5.50458 5.84683 5.45012 5.87429 5.40946 5.91736C5.3688 5.96042 5.34452 6.01637 5.34083 6.07548C5.33713 6.13459 5.35427 6.19313 5.38925 6.24092Z" fill="#FFEB9C"/>
                  </g>
                </svg>