 <svg width="439" height="223" viewBox="0 0 439 223" fill="none" xmlns="http://www.w3.org/2000/svg">
        <g filter="url(#filter0_dd_12766_51720)">
        <path d="M312.624 8C317.795 8 323.634 20.8672 323.634 26.0381C323.634 36.9089 332.447 45.7217 343.317 45.7217H404.804C410.447 45.7217 418.373 49.6268 418.373 55.2699V87.2611C418.373 93.5935 415.394 99.5569 410.331 103.36L300.137 186.124C295.981 189.246 290.923 190.934 285.724 190.934H167.447C155.161 190.934 145.2 180.973 145.2 168.687C145.2 156.4 135.24 146.439 122.953 146.439H44C30.7452 146.439 20 135.694 20 122.439V32C20 18.7452 30.7452 8 44 8H312.624Z" fill="white"/>
        </g>
        <defs>
        <filter id="filter0_dd_12766_51720" x="0" y="0" width="438.373" height="222.934" filterUnits="userSpaceOnUse" color-interpolation-filters="sRGB">
        <feFlood flood-opacity="0" result="BackgroundImageFix"/>
        <feColorMatrix in="SourceAlpha" type="matrix" values="0 0 0 0 0 0 0 0 0 0 0 0 0 0 0 0 0 0 127 0" result="hardAlpha"/>
        <feMorphology radius="4" operator="erode" in="SourceAlpha" result="effect1_dropShadow_12766_51720"/>
        <feOffset dy="12"/>
        <feGaussianBlur stdDeviation="12"/>
        <feComposite in2="hardAlpha" operator="out"/>
        <feColorMatrix type="matrix" values="0 0 0 0 0.568627 0 0 0 0 0.619608 0 0 0 0 0.670588 0 0 0 0.12 0"/>
        <feBlend mode="normal" in2="BackgroundImageFix" result="effect1_dropShadow_12766_51720"/>
        <feColorMatrix in="SourceAlpha" type="matrix" values="0 0 0 0 0 0 0 0 0 0 0 0 0 0 0 0 0 0 127 0" result="hardAlpha"/>
        <feOffset/>
        <feGaussianBlur stdDeviation="1"/>
        <feComposite in2="hardAlpha" operator="out"/>
        <feColorMatrix type="matrix" values="0 0 0 0 0.568627 0 0 0 0 0.619608 0 0 0 0 0.670588 0 0 0 0.2 0"/>
        <feBlend mode="normal" in2="effect1_dropShadow_12766_51720" result="effect2_dropShadow_12766_51720"/>
        <feBlend mode="normal" in="SourceGraphic" in2="effect2_dropShadow_12766_51720" result="shape"/>
        </filter>
        </defs>
      </svg>