<svg width="437" height="217" viewBox="0 0 437 217" fill="none" xmlns="http://www.w3.org/2000/svg">
<g filter="url(#filter0_dd_12779_51761)">
<path d="M324.419 27.0303C324.419 37.5404 332.939 46.0605 343.449 46.0605H392.015C405.269 46.0605 416.015 56.8057 416.015 70.0605V126.183C416.015 133.732 412.463 140.84 406.428 145.373L360.262 180.047C356.106 183.169 351.048 184.856 345.849 184.856H179.133C166.871 184.856 156.93 174.916 156.93 162.653C156.93 150.39 146.989 140.449 134.726 140.449H44C30.7452 140.449 20 129.704 20 116.449V32C20 18.7452 30.7452 8 44 8H305.389C315.899 8 324.419 16.5201 324.419 27.0303Z" fill="white"/>
</g>
<defs>
<filter id="filter0_dd_12779_51761" x="0" y="0" width="436.015" height="216.856" filterUnits="userSpaceOnUse" color-interpolation-filters="sRGB">
<feFlood flood-opacity="0" result="BackgroundImageFix"/>
<feColorMatrix in="SourceAlpha" type="matrix" values="0 0 0 0 0 0 0 0 0 0 0 0 0 0 0 0 0 0 127 0" result="hardAlpha"/>
<feMorphology radius="4" operator="erode" in="SourceAlpha" result="effect1_dropShadow_12779_51761"/>
<feOffset dy="12"/>
<feGaussianBlur stdDeviation="12"/>
<feComposite in2="hardAlpha" operator="out"/>
<feColorMatrix type="matrix" values="0 0 0 0 0.568627 0 0 0 0 0.619608 0 0 0 0 0.670588 0 0 0 0.12 0"/>
<feBlend mode="normal" in2="BackgroundImageFix" result="effect1_dropShadow_12779_51761"/>
<feColorMatrix in="SourceAlpha" type="matrix" values="0 0 0 0 0 0 0 0 0 0 0 0 0 0 0 0 0 0 127 0" result="hardAlpha"/>
<feOffset/>
<feGaussianBlur stdDeviation="1"/>
<feComposite in2="hardAlpha" operator="out"/>
<feColorMatrix type="matrix" values="0 0 0 0 0.568627 0 0 0 0 0.619608 0 0 0 0 0.670588 0 0 0 0.2 0"/>
<feBlend mode="normal" in2="effect1_dropShadow_12779_51761" result="effect2_dropShadow_12779_51761"/>
<feBlend mode="normal" in="SourceGraphic" in2="effect2_dropShadow_12779_51761" result="shape"/>
</filter>
</defs>
</svg>
