 <svg width="32" height="24" viewBox="0 0 32 24" fill="none" xmlns="http://www.w3.org/2000/svg">
              <path d="M5.53809 0.666992H26.4619C29.1522 0.667192 31.3328 2.84776 31.333 5.53809V8C31.333 16.4684 24.4684 23.333 16 23.333C7.53163 23.333 0.666992 16.4684 0.666992 8V5.53809C0.667195 2.84777 2.84777 0.667195 5.53809 0.666992Z" fill="#FFEB9C" fill-opacity="0.16"/>
              <path d="M5.53809 0.666992H26.4619C29.1522 0.667192 31.3328 2.84776 31.333 5.53809V8C31.333 16.4684 24.4684 23.333 16 23.333C7.53163 23.333 0.666992 16.4684 0.666992 8V5.53809C0.667195 2.84777 2.84777 0.667195 5.53809 0.666992Z" stroke="#E6D48C" stroke-width="1.33333"/>
              <path opacity="0.5" d="M19.9241 17.3102C19.7383 17.8794 19.4117 18.3924 18.9748 18.8018C18.325 19.4106 17.3223 19.6791 15.3179 20.216C13.3134 20.7529 12.3108 21.0222 11.4441 20.8195C10.7593 20.6599 10.1372 20.3007 9.65654 19.7875C9.04765 19.1378 8.77831 18.1351 8.24143 16.1306L7.78187 14.4133C7.24409 12.4089 6.97565 11.4062 7.17743 10.5395C7.33735 9.85463 7.6968 9.23255 8.21031 8.75197C8.86009 8.14308 9.86276 7.87464 11.8672 7.33686C12.2459 7.23553 12.5899 7.14308 12.9028 7.06219L12.6859 7.86753L12.2263 9.58486C11.6885 11.5893 11.4201 12.5911 11.6219 13.4586C11.7818 14.1435 12.1412 14.7656 12.6548 15.2462C13.3045 15.8551 14.3072 16.1235 16.3116 16.6613C18.1179 17.1449 19.1108 17.4106 19.9241 17.3102Z" fill="#E6D48C"/>
              <path fill-rule="evenodd" clip-rule="evenodd" d="M23.849 10.8578L23.3885 12.5751C22.8508 14.5796 22.5823 15.5822 21.9734 16.232C21.493 16.745 20.8712 17.1042 20.1868 17.264C20.1005 17.2844 20.0134 17.2996 19.9245 17.3102C19.1112 17.4107 18.1183 17.1449 16.3121 16.6613C14.3077 16.1236 13.305 15.8551 12.6552 15.2462C12.142 14.7655 11.7829 14.1435 11.6232 13.4587C11.4205 12.5911 11.689 11.5893 12.2268 9.58489L12.6863 7.86755L12.9032 7.06311C13.3077 5.58222 13.5797 4.76711 14.1014 4.20978C14.582 3.69706 15.2037 3.33826 15.8881 3.17866C16.7557 2.976 17.7583 3.24444 19.7637 3.78222C21.7672 4.31911 22.7699 4.58755 23.4197 5.19555C23.933 5.67649 24.2921 6.29889 24.4517 6.984C24.6543 7.85155 24.3859 8.85333 23.849 10.8578ZM15.1574 10.0489C15.1801 9.96431 15.2193 9.88502 15.2726 9.81557C15.3259 9.74611 15.3924 9.68785 15.4683 9.6441C15.5441 9.60035 15.6279 9.57197 15.7147 9.5606C15.8015 9.54921 15.8898 9.55505 15.9743 9.57778L20.2677 10.7289C20.3545 10.7495 20.4363 10.7873 20.5082 10.84C20.5801 10.8928 20.6407 10.9595 20.6864 11.0361C20.7321 11.1127 20.762 11.1977 20.7742 11.2861C20.7864 11.3745 20.7808 11.4644 20.7577 11.5505C20.7345 11.6367 20.6943 11.7173 20.6395 11.7877C20.5846 11.858 20.5161 11.9166 20.4382 11.96C20.3603 12.0034 20.2744 12.0307 20.1857 12.0403C20.097 12.05 20.0073 12.0417 19.9219 12.016L15.6285 10.8658C15.4579 10.8199 15.3125 10.7083 15.2241 10.5553C15.1358 10.4023 15.1118 10.2196 15.1574 10.0489ZM14.4677 12.6249C14.5135 12.4543 14.6252 12.3088 14.7782 12.2205C14.9312 12.1321 15.113 12.1082 15.2837 12.1538L17.8597 12.8444C17.9469 12.8646 18.0291 12.9021 18.1016 12.9547C18.174 13.0073 18.2351 13.0739 18.2812 13.1507C18.3273 13.2274 18.3575 13.3126 18.3699 13.4012C18.3824 13.4899 18.3769 13.5801 18.3537 13.6666C18.3305 13.753 18.2902 13.834 18.2351 13.9045C18.18 13.975 18.1112 14.0337 18.0329 14.0771C17.9546 14.1205 17.8684 14.1477 17.7794 14.1571C17.6904 14.1664 17.6004 14.1577 17.5148 14.1316L14.9388 13.4418C14.8542 13.4191 14.7749 13.38 14.7055 13.3266C14.636 13.2733 14.5777 13.2068 14.534 13.1309C14.4902 13.0551 14.4619 12.9713 14.4505 12.8845C14.4391 12.7977 14.4449 12.7095 14.4677 12.6249Z" fill="#E6D48C"/>
              </svg>