<svg width="24" height="24" viewBox="0 0 24 24" fill="none" xmlns="http://www.w3.org/2000/svg">
<path d="M2.22363 11.5391C2.34981 11.8021 9.54326 14.2731 9.94824 14.4375L10.1777 14.5127V14.7041C10.1782 15.0518 10.2787 15.3886 10.4619 15.6777C10.4071 16.0258 10.3789 16.3827 10.3789 16.7461C10.3789 18.8499 11.3331 20.7302 12.832 21.9795H3.68262C3.29539 21.9788 2.92391 21.8239 2.65039 21.5498C2.37693 21.2756 2.22337 20.9038 2.22363 20.5166V11.5391ZM12.1299 12.1875C11.6329 12.7388 11.2246 13.3715 10.9277 14.0635V12.1875H12.1299ZM21.1777 6.44238C21.4939 6.45647 21.7973 6.57827 22.0361 6.79004C22.3091 7.03217 22.4759 7.37227 22.5 7.73633V8.92188C22.4767 9.44403 22.2931 9.94691 21.9746 10.3613C21.7231 10.6884 21.3959 10.9461 21.0244 11.1182C19.932 10.3723 18.612 9.93558 17.1895 9.93555C15.5747 9.93555 14.0922 10.4985 12.9248 11.4375H10.5527C10.4535 11.4378 10.3583 11.4778 10.2881 11.5479C10.218 11.618 10.1781 11.7133 10.1777 11.8125V13.7256C10.0729 13.6919 9.97155 13.6577 9.87793 13.624L3.28125 11.2393C2.88609 11.0984 2.52528 10.8745 2.22363 10.583C1.99806 10.3687 1.81767 10.1104 1.69336 9.8252C1.56922 9.54013 1.50345 9.23278 1.5 8.92188V7.73633C1.52407 7.37227 1.69094 7.03217 1.96387 6.79004C2.20271 6.57827 2.50611 6.45647 2.82227 6.44238H21.1777ZM21.7764 11.7119C21.7366 11.6757 21.6949 11.6417 21.6543 11.6064C21.703 11.5804 21.7452 11.56 21.7764 11.5391V11.7119ZM14.25 2.02148C14.9459 2.02225 15.6134 2.29892 16.1055 2.79102C16.5975 3.2831 16.8742 3.95062 16.875 4.64648V5.69238H14.625V4.64648C14.6247 4.54722 14.5848 4.45207 14.5146 4.38184C14.4444 4.3116 14.3493 4.27177 14.25 4.27148H9.75C9.65065 4.27177 9.55561 4.3116 9.48535 4.38184C9.4152 4.45207 9.37531 4.54722 9.375 4.64648V5.69238H7.125V4.64648C7.12578 3.95062 7.40253 3.2831 7.89453 2.79102C8.38665 2.29892 9.05406 2.02225 9.75 2.02148H14.25Z" fill="black"/>
<path d="M17.0898 10.708C20.3692 10.7082 23.0273 13.3671 23.0273 16.6465C23.0272 19.9258 20.3692 22.5838 17.0898 22.584C13.8104 22.584 11.1515 19.9259 11.1514 16.6465C11.1514 13.367 13.8103 10.708 17.0898 10.708ZM18.8408 16.3457C18.3699 16.7257 17.7829 16.9335 17.1777 16.9336C16.5726 16.9336 15.9857 16.7256 15.5146 16.3457L14.5098 16.6797C14.1384 16.8031 13.8149 17.04 13.5859 17.3574C13.357 17.6749 13.2342 18.0568 13.2344 18.4482V19.2852C13.2348 19.4728 13.3097 19.6524 13.4424 19.7852C13.5751 19.9178 13.7548 19.9927 13.9424 19.9932H20.4131C20.6006 19.9926 20.7804 19.9178 20.9131 19.7852C21.0457 19.6524 21.1207 19.4727 21.1211 19.2852V18.4482C21.1213 18.0569 20.9984 17.6749 20.7695 17.3574C20.5406 17.0401 20.217 16.8032 19.8457 16.6797L18.8408 16.3457ZM17.1777 12C14.9518 12.0154 14.195 14.9588 16.0967 16.0547C17.4691 16.8933 19.3883 15.8162 19.3496 14.1719C19.3488 13.5963 19.1189 13.0438 18.7119 12.6367C18.305 12.23 17.7531 12.001 17.1777 12Z" fill="black"/>
</svg>
