<svg width="24" height="24" viewBox="0 0 24 24" fill="none" xmlns="http://www.w3.org/2000/svg">
<path d="M22.1248 20.6802H1.86912C1.77068 20.6818 1.67681 20.722 1.60776 20.7921C1.53871 20.8623 1.5 20.9568 1.5 21.0553C1.5 21.1537 1.53869 21.2482 1.60774 21.3184C1.67679 21.3886 1.77066 21.4288 1.86909 21.4304H22.1248C22.2243 21.4304 22.3197 21.3909 22.3901 21.3205C22.4604 21.2502 22.4999 21.1548 22.4999 21.0553C22.4999 20.9558 22.4604 20.8604 22.3901 20.79C22.3197 20.7197 22.2243 20.6802 22.1248 20.6802Z" fill="black"/>
<path d="M5.10985 15.2409C5.11089 14.9497 5.22702 14.6708 5.4329 14.4649C5.63879 14.259 5.91774 14.1429 6.20891 14.1418H10.5489C10.8402 14.1422 11.1196 14.2582 11.3256 14.4642C11.5316 14.6702 11.6475 14.9495 11.6479 15.2409V19.9297H14.5437V3.66888C14.5433 3.37752 14.4274 3.09821 14.2214 2.89218C14.0154 2.68616 13.7361 2.57023 13.4447 2.56982H3.31683C3.17247 2.56971 3.0295 2.59806 2.89611 2.65325C2.76271 2.70845 2.64151 2.7894 2.53943 2.89148C2.43735 2.99356 2.35639 3.11476 2.3012 3.24816C2.24601 3.38155 2.21766 3.52452 2.21777 3.66888V19.9297H5.10985V15.2409ZM9.81366 4.75294C9.81396 4.65355 9.85357 4.55831 9.92385 4.48803C9.99414 4.41774 10.0894 4.37813 10.1888 4.37784H12.3569C12.4062 4.37767 12.4551 4.38725 12.5006 4.40604C12.5462 4.42483 12.5877 4.45246 12.6225 4.48732C12.6574 4.52219 12.685 4.56361 12.7038 4.60919C12.7226 4.65478 12.7322 4.70364 12.732 4.75294V6.92104C12.7325 6.97044 12.7231 7.01943 12.7044 7.06516C12.6858 7.11089 12.6581 7.15244 12.6232 7.18737C12.5883 7.2223 12.5467 7.24991 12.501 7.26859C12.4553 7.28726 12.4063 7.29664 12.3569 7.29615H10.1888C10.1395 7.29632 10.0906 7.28673 10.045 7.26794C9.99944 7.24915 9.95802 7.22153 9.92315 7.18667C9.88828 7.1518 9.86066 7.11038 9.84187 7.06479C9.82308 7.01921 9.81349 6.97035 9.81366 6.92104V4.75294ZM9.81366 9.09292C9.81396 8.99352 9.85357 8.89828 9.92385 8.828C9.99414 8.75772 10.0894 8.71811 10.1888 8.71781H12.3569C12.4062 8.71764 12.4551 8.72723 12.5006 8.74602C12.5462 8.76481 12.5877 8.79243 12.6225 8.8273C12.6574 8.86216 12.685 8.90358 12.7038 8.94917C12.7226 8.99476 12.7322 9.04361 12.732 9.09292V11.2648C12.7322 11.3141 12.7226 11.3629 12.7038 11.4085C12.685 11.4541 12.6574 11.4955 12.6225 11.5304C12.5877 11.5653 12.5462 11.5929 12.5006 11.6117C12.4551 11.6305 12.4062 11.6401 12.3569 11.6399H10.1888C10.0894 11.6396 9.99414 11.6 9.92385 11.5297C9.85357 11.4594 9.81396 11.3642 9.81366 11.2648V9.09292ZM4.02579 4.75294C4.02608 4.65355 4.06569 4.55831 4.13598 4.48803C4.20626 4.41774 4.3015 4.37813 4.40089 4.37784H6.57275C6.67215 4.37813 6.76739 4.41774 6.83767 4.48802C6.90795 4.55831 6.94757 4.65355 6.94785 4.75294V6.92104C6.94803 6.97035 6.93844 7.01921 6.91965 7.06479C6.90086 7.11038 6.87324 7.1518 6.83838 7.18667C6.80351 7.22153 6.76209 7.24916 6.7165 7.26795C6.67091 7.28674 6.62206 7.29632 6.57275 7.29615H4.40089C4.35158 7.29632 4.30273 7.28673 4.25714 7.26794C4.21156 7.24915 4.17014 7.22153 4.13527 7.18667C4.10041 7.1518 4.07278 7.11038 4.05399 7.06479C4.0352 7.0192 4.02562 6.97035 4.02579 6.92104V4.75294ZM4.02579 11.2648V9.09292C4.02608 8.99353 4.06569 8.89828 4.13598 8.828C4.20626 8.75772 4.3015 8.71811 4.40089 8.71781H6.57275C6.67215 8.7181 6.76739 8.75772 6.83767 8.828C6.90795 8.89828 6.94757 8.99352 6.94785 9.09292V11.2648C6.94757 11.3642 6.90795 11.4594 6.83767 11.5297C6.76739 11.6 6.67215 11.6396 6.57275 11.6399H4.40089C4.3015 11.6396 4.20626 11.6 4.13597 11.5297C4.06569 11.4594 4.02608 11.3642 4.02579 11.2648Z" fill="black"/>
<path d="M8.75586 14.8921V19.9298H10.8977V15.241C10.8973 15.1486 10.8604 15.0601 10.795 14.9948C10.7297 14.9295 10.6413 14.8926 10.5489 14.8921H8.75586Z" fill="black"/>
<path d="M5.86035 15.241V19.9298H8.00595V14.8921H6.2092C6.11682 14.8926 6.02836 14.9295 5.96304 14.9948C5.89772 15.0601 5.86081 15.1486 5.86035 15.241Z" fill="black"/>
<path d="M4.77637 5.12793H6.19799V6.5458H4.77637V5.12793Z" fill="black"/>
<path d="M10.5645 5.12793H11.9823V6.5458H10.5645V5.12793Z" fill="black"/>
<path d="M4.77637 9.46777H6.19799V10.8894H4.77637V9.46777Z" fill="black"/>
<path d="M10.5645 9.46777H11.9823V10.8894H10.5645V9.46777Z" fill="black"/>
<path d="M21.7758 9.45321C21.7752 9.16224 21.6591 8.8834 21.453 8.678C21.2469 8.4726 20.9677 8.35747 20.6767 8.35791H15.2939V19.93H21.7758V9.45321ZM19.994 17.0491C19.9942 17.0984 19.9846 17.1473 19.9658 17.1929C19.947 17.2385 19.9194 17.2799 19.8845 17.3147C19.8497 17.3496 19.8083 17.3772 19.7627 17.396C19.7171 17.4148 19.6682 17.4244 19.6189 17.4242H17.4508C17.4014 17.4247 17.3524 17.4153 17.3067 17.3967C17.261 17.378 17.2194 17.3504 17.1845 17.3154C17.1496 17.2805 17.1219 17.239 17.1033 17.1932C17.0846 17.1475 17.0752 17.0985 17.0757 17.0491V14.881C17.0755 14.8317 17.0851 14.7828 17.1039 14.7373C17.1227 14.6917 17.1503 14.6503 17.1852 14.6154C17.2201 14.5805 17.2615 14.5529 17.3071 14.5341C17.3526 14.5153 17.4015 14.5057 17.4508 14.5059H19.6189C19.7183 14.5062 19.8136 14.5458 19.8838 14.6161C19.9541 14.6864 19.9937 14.7816 19.994 14.881V17.0491ZM19.994 12.7092C19.9942 12.7585 19.9846 12.8073 19.9658 12.8529C19.947 12.8985 19.9194 12.9399 19.8845 12.9748C19.8497 13.0097 19.8083 13.0373 19.7627 13.0561C19.7171 13.0749 19.6682 13.0844 19.6189 13.0843H17.4508C17.4014 13.0848 17.3524 13.0754 17.3067 13.0567C17.261 13.038 17.2194 13.0104 17.1845 12.9755C17.1496 12.9406 17.1219 12.899 17.1033 12.8533C17.0846 12.8076 17.0752 12.7586 17.0757 12.7092V10.541C17.0752 10.4917 17.0846 10.4427 17.1033 10.3969C17.1219 10.3512 17.1496 10.3096 17.1845 10.2747C17.2194 10.2398 17.261 10.2122 17.3067 10.1935C17.3524 10.1748 17.4014 10.1654 17.4508 10.1659H19.6189C19.6682 10.1658 19.7171 10.1754 19.7627 10.1941C19.8083 10.2129 19.8497 10.2406 19.8846 10.2754C19.9194 10.3103 19.947 10.3517 19.9658 10.3973C19.9846 10.4429 19.9942 10.4917 19.994 10.541V12.7092Z" fill="black"/>
<path d="M17.8262 15.2559H19.244V16.6737H17.8262V15.2559Z" fill="black"/>
<path d="M17.8262 10.916H19.244V12.3339H17.8262V10.916Z" fill="black"/>
</svg>
