<svg width="24" height="24" viewBox="0 0 24 24" fill="none" xmlns="http://www.w3.org/2000/svg">
<g clip-path="url(#clip0_12525_24618)">
<path d="M18.4463 1.5C18.7737 1.50118 19.0872 1.63245 19.3184 1.86426C19.5495 2.09615 19.6795 2.4099 19.6797 2.7373V14.0234H4.31934V2.7373C4.3195 2.41008 4.44976 2.09611 4.68066 1.86426C4.91185 1.63237 5.22628 1.50117 5.55371 1.5H18.4463ZM5.55371 12.7686C5.45434 12.7686 5.35835 12.8086 5.28809 12.8789C5.21806 12.9491 5.17876 13.0444 5.17871 13.1436C5.17871 13.243 5.21784 13.3389 5.28809 13.4092C5.35835 13.4794 5.45434 13.5185 5.55371 13.5186H18.4463C18.5455 13.5185 18.6407 13.4792 18.7109 13.4092C18.7813 13.3389 18.8213 13.243 18.8213 13.1436C18.8212 13.0442 18.7812 12.9492 18.7109 12.8789C18.6407 12.8087 18.5456 12.7686 18.4463 12.7686H5.55371ZM5.55371 10.4658C5.45434 10.4659 5.35835 10.5059 5.28809 10.5762C5.21805 10.6464 5.17882 10.7417 5.17871 10.8408C5.17871 10.9402 5.21791 11.0361 5.28809 11.1064C5.35835 11.1767 5.45434 11.2158 5.55371 11.2158H18.4463C18.5455 11.2157 18.6407 11.1765 18.7109 11.1064C18.7813 11.0361 18.8213 10.9403 18.8213 10.8408C18.8212 10.7415 18.7812 10.6464 18.7109 10.5762C18.6407 10.506 18.5456 10.4659 18.4463 10.4658H5.55371ZM5.55371 8.16797C5.45434 8.16803 5.35835 8.20707 5.28809 8.27734C5.21792 8.34765 5.17871 8.44363 5.17871 8.54297C5.17883 8.64213 5.21804 8.73743 5.28809 8.80762C5.35835 8.87789 5.45434 8.9179 5.55371 8.91797H18.4463C18.5455 8.9179 18.6407 8.87774 18.7109 8.80762C18.7812 8.7374 18.8212 8.64226 18.8213 8.54297C18.8213 8.44351 18.7813 8.34767 18.7109 8.27734C18.6407 8.20723 18.5455 8.16804 18.4463 8.16797H5.55371ZM5.55371 5.46777C5.45434 5.46784 5.35835 5.50688 5.28809 5.57715C5.21786 5.64746 5.17871 5.74339 5.17871 5.84277C5.17878 5.94195 5.21806 6.0372 5.28809 6.10742C5.35835 6.17769 5.45434 6.21771 5.55371 6.21777H9.58496C9.68427 6.21772 9.77935 6.1776 9.84961 6.10742C9.91987 6.03716 9.95989 5.94213 9.95996 5.84277C9.95996 5.74332 9.91994 5.64747 9.84961 5.57715C9.77937 5.5071 9.68417 5.46783 9.58496 5.46777H5.55371ZM5.55371 3.57031C5.45434 3.57038 5.35835 3.60942 5.28809 3.67969C5.21787 3.75 5.17871 3.84594 5.17871 3.94531C5.17879 4.04449 5.21806 4.13974 5.28809 4.20996C5.35835 4.28023 5.45434 4.32025 5.55371 4.32031H9.58496C9.68426 4.32026 9.77935 4.28013 9.84961 4.20996C9.91986 4.13971 9.95988 4.04466 9.95996 3.94531C9.95996 3.84586 9.91994 3.75001 9.84961 3.67969C9.77936 3.60963 9.68418 3.57036 9.58496 3.57031H5.55371Z" fill="black"/>
<path d="M9.03027 14.626C9.5927 14.6429 10.1316 14.8563 10.5527 15.2295L8.91406 15.9834C8.71303 16.0749 8.53931 16.2179 8.41211 16.3984C8.2849 16.579 8.20891 16.7906 8.19043 17.0107C8.09884 18.3909 9.94299 18.8754 10.9873 18.376L13.6797 17.209C13.9296 17.5903 14.2802 17.8959 14.6924 18.0908L16.4287 19.4443C16.5072 19.5075 16.5708 19.5879 16.6143 19.6787C16.6576 19.7695 16.6797 19.8691 16.6797 19.9697C16.6751 20.0992 16.6345 20.2251 16.5615 20.332C16.4885 20.4389 16.3864 20.5228 16.2676 20.5742C16.1486 20.6257 16.0167 20.6422 15.8887 20.6221C15.7609 20.6019 15.6413 20.5462 15.5439 20.4609C15.4746 20.4121 15.2505 20.2152 15.1836 20.1641L13.6045 18.9004C13.5262 18.8408 13.4277 18.8143 13.3301 18.8262C13.2323 18.8381 13.1427 18.888 13.0811 18.9648C13.0196 19.0416 12.9905 19.1394 13 19.2373C13.0095 19.3354 13.0575 19.4257 13.1328 19.4893L14.7334 20.7646C14.8635 20.8802 14.9436 21.0414 14.957 21.2148C14.9704 21.3883 14.9164 21.5602 14.8057 21.6943C14.6949 21.8285 14.5361 21.914 14.3633 21.9336C14.1905 21.9532 14.0169 21.9056 13.8789 21.7998C13.5946 21.5714 12.0964 20.369 11.7783 20.1152C11.7007 20.0559 11.6029 20.0294 11.5059 20.041C11.4085 20.0528 11.3191 20.1022 11.2578 20.1787C11.1965 20.2552 11.168 20.3527 11.1777 20.4502C11.1875 20.5478 11.2343 20.6383 11.3096 20.7012L12.9414 22.0059C13.0127 22.0588 13.0727 22.1258 13.1182 22.2021C13.1636 22.2785 13.1936 22.3632 13.2061 22.4512C13.2185 22.5391 13.2138 22.6289 13.1914 22.7148C13.169 22.8008 13.129 22.8814 13.0752 22.9521C13.0213 23.0228 12.9539 23.0825 12.877 23.127C12.8001 23.1714 12.715 23.1996 12.627 23.2109C12.5388 23.2223 12.449 23.2169 12.3633 23.1934C12.2776 23.1699 12.1979 23.1289 12.1279 23.0742L9.95605 21.334C9.87847 21.2738 9.78016 21.2464 9.68262 21.2578C9.58495 21.2693 9.49516 21.3188 9.43359 21.3955C9.37202 21.4724 9.34343 21.571 9.35352 21.6689C9.36365 21.7668 9.41142 21.8573 9.4873 21.9199L9.84375 22.208C9.85116 22.208 9.85085 22.2159 9.85449 22.2197L10.8115 22.9805C10.9463 23.0918 11.0316 23.2519 11.0498 23.4258C11.068 23.5997 11.018 23.7742 10.9092 23.9111C10.8086 24.0374 10.6642 24.1211 10.5049 24.1475C10.3456 24.1738 10.1818 24.1399 10.0459 24.0527C9.02215 23.3965 7.47693 22.3472 5.80469 21.1699C5.34556 20.7903 4.56556 20.8741 4.00879 20.8691V14.626H9.03027ZM2.88379 13.0322C2.98314 13.0325 3.07818 13.0723 3.14844 13.1426C3.2186 13.2128 3.25849 13.3079 3.25879 13.4072V21.4922C3.25843 21.5915 3.21864 21.6866 3.14844 21.7568C3.07819 21.827 2.98309 21.8669 2.88379 21.8672H1.5V13.0322H2.88379ZM22.5 13.0322V21.8672H21.0371C20.9379 21.8668 20.8426 21.827 20.7725 21.7568C20.7023 21.6866 20.6625 21.5914 20.6621 21.4922V13.4072C20.6624 13.308 20.7024 13.2128 20.7725 13.1426C20.8426 13.0724 20.9379 13.0326 21.0371 13.0322H22.5ZM19.9121 20.8652L17.0996 20.877C17.22 20.7316 17.3104 20.5634 17.3652 20.3828C17.42 20.2023 17.4381 20.0128 17.4189 19.8252C17.3997 19.6374 17.3441 19.4548 17.2539 19.2891C17.1637 19.1233 17.0408 18.9774 16.8936 18.8594L16.4062 18.4766C16.7331 18.471 17.4094 18.5945 17.3926 18.0723C17.39 18.0231 17.3779 17.974 17.3564 17.9297C17.335 17.8854 17.3045 17.8459 17.2676 17.8135C17.2306 17.7811 17.1872 17.7568 17.1406 17.7412C17.0939 17.7257 17.0442 17.7198 16.9951 17.7236C14.6479 17.8659 14.2322 16.6699 14.2158 16.6211C14.2012 16.5698 14.176 16.5221 14.1416 16.4814C14.107 16.4407 14.064 16.4075 14.0156 16.3848C13.9673 16.3621 13.9147 16.3503 13.8613 16.3496C13.808 16.3489 13.7549 16.3594 13.7061 16.3809L10.6875 17.6895C10.4394 17.7974 10.1676 17.84 9.89844 17.8125C9.62931 17.7849 9.37146 17.6882 9.15039 17.5322C9.0762 17.4825 9.016 17.4136 8.97754 17.333C8.93908 17.2524 8.92359 17.1622 8.93164 17.0732C8.93974 16.9845 8.97126 16.8994 9.02344 16.8271C9.07571 16.7548 9.14665 16.6977 9.22852 16.6621L13.1592 14.8623C13.4926 14.7068 13.8558 14.626 14.2236 14.626H19.9121V20.8652Z" fill="black"/>
</g>
<defs>
<clipPath id="clip0_12525_24618">
<rect width="24" height="24" fill="white"/>
</clipPath>
</defs>
</svg>
