<svg width="24" height="24" viewBox="0 0 24 24" fill="none" xmlns="http://www.w3.org/2000/svg">
<path d="M21.736 11.0506L12.4521 1.68181C12.3303 1.56514 12.1682 1.5 11.9996 1.5C11.831 1.5 11.6689 1.56514 11.5471 1.68181L2.26323 11.0465C2.17345 11.139 2.11262 11.2557 2.08818 11.3822C2.06375 11.5087 2.07677 11.6397 2.12566 11.7589C2.17456 11.8782 2.25719 11.9805 2.36342 12.0535C2.46966 12.1265 2.59488 12.1668 2.72373 12.1697C2.895 12.1691 3.05911 12.1009 3.18025 11.9798L11.7128 3.37458C11.7503 3.33659 11.7949 3.30642 11.8442 3.28583C11.8934 3.26525 11.9462 3.25464 11.9996 3.25464C12.053 3.25464 12.1058 3.26525 12.1551 3.28583C12.2043 3.30642 12.249 3.33659 12.2865 3.37458L20.827 11.9838C20.9482 12.1032 21.1114 12.1702 21.2815 12.1702C21.4516 12.1702 21.6149 12.1032 21.736 11.9838C21.8584 11.8593 21.9269 11.6918 21.9269 11.5172C21.9269 11.3427 21.8584 11.1751 21.736 11.0506Z" fill="black"/>
<path d="M4.35157 11.9435C4.35788 11.9749 4.32711 21.2602 4.32326 21.296C4.31922 21.9303 4.96159 22.4515 5.74939 22.4555L9.01774 22.4676V18.1448C9.01774 17.3578 9.33037 16.6031 9.88687 16.0466C10.4434 15.4901 11.1981 15.1775 11.9851 15.1775C12.7721 15.1775 13.5269 15.4901 14.0834 16.0466C14.6399 16.6031 14.9525 17.3578 14.9525 18.1448V22.4878L18.233 22.5C18.6497 22.5095 19.0533 22.3541 19.3561 22.0677C19.4547 21.9744 19.5337 21.8624 19.5885 21.7383C19.6433 21.6141 19.6728 21.4803 19.6753 21.3446V11.9758L11.9993 4.23105L4.35157 11.9435Z" fill="black"/>
<path d="M9.82617 18.1448V22.4717L14.1449 22.4838V18.1448C14.0543 15.2907 9.91775 15.2871 9.82617 18.1448Z" fill="black"/>
</svg>
