<svg width="24" height="24" viewBox="0 0 18 21" fill="none" xmlns="http://www.w3.org/2000/svg">
  <g>
    <path d="M16.6762 13.7095C16.6026 13.6209 16.5304 13.5322 16.4595 13.4467C15.4844 12.2672 14.8944 11.5554 14.8944 8.21657C14.8944 6.48798 14.4809 5.06965 13.6658 4.0059C13.0648 3.22006 12.2524 2.62391 11.1815 2.18334C11.1677 2.17568 11.1554 2.16562 11.1452 2.15365C10.76 0.863852 9.70601 0 8.51728 0C7.32854 0 6.27498 0.863852 5.88982 2.15232C5.87954 2.16385 5.8674 2.17359 5.85392 2.18113C3.35499 3.20986 2.14055 5.18356 2.14055 8.21524C2.14055 11.5554 1.5515 12.2672 0.575507 13.4453C0.504591 13.5309 0.432344 13.6178 0.358768 13.7082C0.168712 13.9374 0.0482963 14.2162 0.0117709 14.5117C-0.0247545 14.8072 0.0241397 15.107 0.152667 15.3756C0.426139 15.9518 1.00898 16.3095 1.67427 16.3095H15.3652C16.0273 16.3095 16.6062 15.9522 16.8806 15.3787C17.0096 15.1101 17.059 14.81 17.0228 14.5142C16.9866 14.2183 16.8663 13.9391 16.6762 13.7095Z" fill="#000"/>
  </g>
  <path d="M8.51692 20.2496C9.1574 20.249 9.7858 20.0752 10.3355 19.7464C10.8851 19.4177 11.3356 18.9463 11.639 18.3822C11.6533 18.3552 11.6604 18.3249 11.6595 18.2944C11.6587 18.2638 11.6499 18.234 11.6341 18.2078C11.6183 18.1816 11.596 18.16 11.5694 18.1449C11.5428 18.1299 11.5127 18.122 11.4821 18.1221H5.55261C5.52199 18.122 5.49187 18.1298 5.46518 18.1448C5.43848 18.1598 5.41612 18.1814 5.40028 18.2076C5.38444 18.2338 5.37565 18.2637 5.37477 18.2943C5.37389 18.3249 5.38095 18.3552 5.39526 18.3822C5.69867 18.9462 6.14904 19.4176 6.69862 19.7463C7.24821 20.0751 7.87652 20.249 8.51692 20.2496Z" fill="#000"/>
</svg>
