<svg width="24" height="24" viewBox="0 0 24 24" fill="none" xmlns="http://www.w3.org/2000/svg">
<path d="M11.9999 16.5263C11.5167 16.5257 11.0534 16.3336 10.7118 15.9919C10.3701 15.6502 10.1779 15.1869 10.1774 14.7037V14.5125L9.94858 14.4375C9.54795 14.2747 2.34542 11.8006 2.22363 11.5388V20.5163C2.22328 20.9036 2.37674 21.2752 2.65028 21.5495C2.92381 21.8237 3.29505 21.9781 3.68238 21.9788H20.3174C20.7047 21.9781 21.076 21.8237 21.3495 21.5495C21.623 21.2752 21.7765 20.9036 21.7761 20.5163V11.5388C21.0108 12.0527 14.7447 14.1687 13.8223 14.5125C13.8457 14.7667 13.8161 15.023 13.7354 15.2652C13.6546 15.5074 13.5245 15.7301 13.3532 15.9194C13.1819 16.1087 12.9731 16.2604 12.7402 16.3648C12.5072 16.4693 12.2552 16.5243 11.9999 16.5263Z" fill="black"/>
<path d="M13.0727 14.7037V12.1875H10.9277V14.7037C10.9277 14.9882 11.0407 15.261 11.2419 15.4621C11.443 15.6633 11.7158 15.7762 12.0002 15.7762C12.2847 15.7762 12.5575 15.6633 12.7586 15.4621C12.9597 15.261 13.0727 14.9882 13.0727 14.7037ZM12.0003 13.065C12.1461 13.0671 12.2852 13.1265 12.3876 13.2303C12.49 13.3342 12.5474 13.4742 12.5474 13.62C12.5474 13.7659 12.49 13.9058 12.3876 14.0097C12.2852 14.1135 12.1461 14.1729 12.0002 14.175C11.8544 14.1729 11.7153 14.1135 11.6129 14.0097C11.5105 13.9058 11.4531 13.7658 11.4531 13.62C11.4531 13.4741 11.5105 13.3342 11.6129 13.2303C11.7153 13.1265 11.8544 13.0671 12.0003 13.065Z" fill="black"/>
<path d="M21.0413 6.44248H2.95875C2.59429 6.42282 2.23677 6.54761 1.9637 6.78979C1.69063 7.03197 1.52402 7.37203 1.5 7.73623V8.92123C1.50336 9.23247 1.56915 9.53987 1.69347 9.82522C1.81779 10.1106 1.99811 10.3681 2.22375 10.5825C2.52544 10.8741 2.886 11.0979 3.28125 11.2387L9.8775 13.6237C9.97125 13.6575 10.0725 13.6912 10.1775 13.725V11.8125C10.1778 11.7131 10.2174 11.6179 10.2877 11.5476C10.3579 11.4774 10.4531 11.4378 10.5525 11.4375H13.4475C13.5469 11.4378 13.6421 11.4774 13.7123 11.5476C13.7826 11.6179 13.8222 11.7131 13.8225 11.8125V13.725C13.9275 13.6912 14.025 13.6612 14.1187 13.6275L20.7187 11.2387C21.2176 11.0819 21.6561 10.7754 21.9747 10.3608C22.2934 9.94621 22.4768 9.44362 22.5 8.92123V7.73623C22.476 7.37202 22.3094 7.03197 22.0363 6.78979C21.7632 6.5476 21.4057 6.42282 21.0413 6.44248Z" fill="black"/>
<path d="M9.375 4.64626C9.37529 4.54689 9.41489 4.45167 9.48515 4.38141C9.55542 4.31115 9.65063 4.27154 9.75 4.27126H14.25C14.3494 4.27154 14.4446 4.31115 14.5148 4.38141C14.5851 4.45167 14.6247 4.54689 14.625 4.64626V5.69251H16.875V4.64626C16.8742 3.9503 16.5974 3.28306 16.1053 2.79094C15.6132 2.29882 14.946 2.02202 14.25 2.02126H9.75C9.05404 2.02202 8.3868 2.29882 7.89469 2.79094C7.40257 3.28306 7.12576 3.9503 7.125 4.64626V5.69251H9.375V4.64626Z" fill="black"/>
</svg>
