<svg width="24" height="24" viewBox="0 0 24 24" fill="none" xmlns="http://www.w3.org/2000/svg">
<path d="M14.6233 1.5C13.0655 1.5 11.5426 1.96195 10.2474 2.82742C8.95208 3.6929 7.94254 4.92303 7.34639 6.36226C6.75024 7.80149 6.59426 9.38519 6.89817 10.9131C7.20209 12.4409 7.95225 13.8444 9.05379 14.9459C10.1553 16.0475 11.5588 16.7976 13.0867 17.1016C14.6145 17.4055 16.1982 17.2495 17.6375 16.6533C19.0767 16.0572 20.3068 15.0476 21.1723 13.7524C22.0378 12.4571 22.4997 10.9343 22.4997 9.37645C22.4974 7.28819 21.6669 5.28611 20.1902 3.80949C18.7136 2.33286 16.7115 1.50229 14.6233 1.5ZM19.8742 8.05995C19.8747 8.1397 19.8494 8.21746 19.8021 8.28167C19.7548 8.34587 19.688 8.39308 19.6117 8.41627L19.4992 8.45377V12.5608C19.4983 12.8589 19.3795 13.1446 19.1687 13.3555C18.9578 13.5663 18.6721 13.6851 18.374 13.686H10.8726C10.5744 13.6851 10.2887 13.5663 10.0779 13.3555C9.86708 13.1446 9.74825 12.8589 9.74738 12.5608V8.45379L9.63488 8.41629C9.55858 8.3931 9.49181 8.34589 9.4445 8.28168C9.39719 8.21748 9.37188 8.13972 9.37233 8.05997V6.55968C9.37291 6.36091 9.45213 6.17045 9.59268 6.02989C9.73324 5.88934 9.9237 5.81012 10.1225 5.80954H12.5604V5.0594C12.561 4.86063 12.6402 4.67017 12.7808 4.52962C12.9213 4.38907 13.1118 4.30985 13.3106 4.30926H15.936C16.1348 4.30985 16.3253 4.38907 16.4658 4.52962C16.6064 4.67017 16.6856 4.86063 16.6862 5.0594V5.80954H19.1241C19.3229 5.81013 19.5133 5.88935 19.6539 6.0299C19.7944 6.17045 19.8737 6.36091 19.8742 6.55968V8.05995Z" fill="black"/>
<path d="M7.64321 14.4361L6.62303 15.4563L6.42425 15.2575C6.35344 15.1873 6.25772 15.1478 6.15795 15.1478C6.05818 15.1478 5.96246 15.1873 5.89164 15.2575L5.21277 15.9364L5.74538 16.469L8.0633 18.7869L8.74218 18.108C8.81066 18.0361 8.84949 17.941 8.85093 17.8418C8.85021 17.7423 8.81127 17.647 8.74218 17.5755L8.54713 17.3804L9.56359 16.3602C8.82523 15.8251 8.17696 15.1755 7.64321 14.4361Z" fill="black"/>
<path d="M2.08848 19.0607C1.71281 19.4392 1.50243 19.9511 1.50342 20.4844C1.50441 21.0177 1.71669 21.5288 2.09377 21.9059C2.47085 22.283 2.982 22.4953 3.51527 22.4963C4.04855 22.4973 4.56048 22.2869 4.93897 21.9112L7.53071 19.3195L4.68017 16.469L2.08848 19.0607Z" fill="black"/>
<path d="M14.6232 9.93526C14.8303 9.93526 14.9982 9.76736 14.9982 9.56026C14.9982 9.35315 14.8303 9.18526 14.6232 9.18526C14.4161 9.18526 14.2482 9.35315 14.2482 9.56026C14.2482 9.76736 14.4161 9.93526 14.6232 9.93526Z" fill="black"/>
<path d="M13.3107 5.0595H15.936V5.8095H13.3107V5.0595Z" fill="black"/>
<path d="M10.1224 7.78617L13.7043 8.9151C13.8075 8.76692 13.9449 8.64587 14.1049 8.56228C14.2649 8.47869 14.4427 8.43503 14.6233 8.43503C14.8038 8.43503 14.9816 8.47869 15.1416 8.56228C15.3017 8.64587 15.4391 8.76692 15.5422 8.9151L19.1241 7.78617V6.55968H10.1224V7.78617Z" fill="black"/>
<path d="M14.6233 10.6854C14.3394 10.6842 14.0664 10.5756 13.8591 10.3816C13.6518 10.1875 13.5256 9.92225 13.5056 9.63901L10.4976 8.69007V12.5608C10.4979 12.6602 10.5375 12.7554 10.6077 12.8257C10.678 12.896 10.7732 12.9356 10.8726 12.9359H18.374C18.4734 12.9356 18.5686 12.896 18.6389 12.8257C18.7092 12.7554 18.7488 12.6602 18.7491 12.5608V8.69007L15.741 9.63901C15.7211 9.92225 15.5948 10.1875 15.3875 10.3816C15.1802 10.5756 14.9073 10.6842 14.6233 10.6854Z" fill="black"/>
</svg>
