<svg width="24" height="24" viewBox="0 0 24 24" fill="none" xmlns="http://www.w3.org/2000/svg">
<path d="M20.7087 6.30576H3.29101C3.1135 6.30627 2.9434 6.37702 2.81788 6.50254C2.69236 6.62806 2.62161 6.79816 2.62109 6.97567V17.0243C2.62162 17.2018 2.69237 17.3719 2.81789 17.4974C2.94341 17.623 3.1135 17.6937 3.29101 17.6942H20.7087C20.8862 17.6937 21.0563 17.623 21.1818 17.4974C21.3073 17.3719 21.3781 17.2018 21.3786 17.0243V6.97567C21.3781 6.79816 21.3073 6.62806 21.1818 6.50254C21.0563 6.37702 20.8862 6.30627 20.7087 6.30576ZM19.8713 15.0983C19.871 15.1871 19.8357 15.2721 19.7729 15.3349C19.7101 15.3977 19.6251 15.433 19.5363 15.4333C19.4253 15.4333 19.3188 15.4775 19.2403 15.556C19.1618 15.6345 19.1177 15.741 19.1177 15.852C19.1174 15.9407 19.082 16.0258 19.0192 16.0885C18.9565 16.1513 18.8714 16.1867 18.7827 16.1869H5.217C5.12824 16.1867 5.0432 16.1513 4.98044 16.0885C4.91768 16.0258 4.8823 15.9407 4.88203 15.852C4.882 15.741 4.83788 15.6345 4.75937 15.556C4.68086 15.4775 4.57439 15.4333 4.46336 15.4333C4.3746 15.433 4.28955 15.3977 4.22679 15.3349C4.16403 15.2721 4.12865 15.1871 4.12839 15.0983V8.90165C4.12866 8.8129 4.16403 8.72785 4.22679 8.66509C4.28955 8.60233 4.3746 8.56696 4.46336 8.56669C4.57439 8.56666 4.68086 8.52254 4.75937 8.44403C4.83787 8.36552 4.882 8.25905 4.88203 8.14802C4.88229 8.05926 4.91767 7.97421 4.98043 7.91145C5.04319 7.84869 5.12824 7.81332 5.217 7.81306H18.7827C18.8714 7.81332 18.9565 7.84869 19.0193 7.91145C19.082 7.97421 19.1174 8.05926 19.1177 8.14802C19.1177 8.25905 19.1618 8.36552 19.2403 8.44403C19.3188 8.52254 19.4253 8.56666 19.5363 8.56669C19.6251 8.56696 19.7101 8.60233 19.7729 8.66509C19.8357 8.72785 19.871 8.8129 19.8713 8.90165V15.0983Z" fill="black"/>
<path d="M18.5018 8.48294H5.49889C5.44581 8.64664 5.35469 8.79542 5.233 8.91711C5.11132 9.03879 4.96253 9.1299 4.79883 9.18297V14.8169C4.96253 14.87 5.11133 14.9611 5.23301 15.0828C5.3547 15.2045 5.44581 15.3533 5.49889 15.517H18.5018C18.5549 15.3533 18.646 15.2045 18.7677 15.0828C18.8894 14.9611 19.0382 14.87 19.2019 14.8169V9.18297C19.0382 9.1299 18.8894 9.03879 18.7677 8.91711C18.646 8.79542 18.5549 8.64664 18.5018 8.48294ZM6.64106 12.5024C6.54169 12.5024 6.44455 12.4729 6.36193 12.4177C6.2793 12.3625 6.21491 12.284 6.17688 12.1922C6.13885 12.1004 6.12891 11.9994 6.1483 11.9019C6.16769 11.8045 6.21554 11.7149 6.28581 11.6447C6.35608 11.5744 6.44561 11.5266 6.54307 11.5072C6.64053 11.4878 6.74156 11.4977 6.83336 11.5358C6.92517 11.5738 7.00364 11.6382 7.05885 11.7208C7.11405 11.8035 7.14352 11.9006 7.14352 12C7.1436 12.066 7.13067 12.1314 7.10545 12.1924C7.08023 12.2533 7.04322 12.3088 6.99654 12.3554C6.94987 12.4021 6.89444 12.4391 6.83344 12.4643C6.77244 12.4896 6.70707 12.5025 6.64106 12.5024ZM12.0004 15.0146C11.4041 15.0145 10.8213 14.8377 10.3255 14.5065C9.8298 14.1752 9.44341 13.7044 9.21525 13.1536C8.98708 12.6027 8.92739 11.9966 9.04371 11.4118C9.16003 10.8271 9.44714 10.2899 9.86874 9.86831C10.2903 9.44671 10.8275 9.1596 11.4123 9.04329C11.997 8.92697 12.6032 8.98667 13.154 9.21484C13.7049 9.44301 14.1757 9.8294 14.5069 10.3252C14.8382 10.8209 15.015 11.4037 15.015 12C15.0138 12.7991 14.6958 13.5652 14.1307 14.1303C13.5656 14.6954 12.7995 15.0133 12.0004 15.0146ZM17.3597 12.5024C17.2603 12.5024 17.1631 12.4729 17.0805 12.4177C16.9979 12.3625 16.9335 12.284 16.8954 12.1922C16.8574 12.1004 16.8475 11.9994 16.8669 11.9019C16.8862 11.8045 16.9341 11.7149 17.0044 11.6447C17.0746 11.5744 17.1642 11.5266 17.2616 11.5072C17.3591 11.4878 17.4601 11.4977 17.5519 11.5358C17.6437 11.5738 17.7222 11.6382 17.7774 11.7208C17.8326 11.8035 17.8621 11.9006 17.8621 12C17.8622 12.066 17.8492 12.1313 17.824 12.1923C17.7988 12.2533 17.7618 12.3088 17.7151 12.3554C17.6684 12.4021 17.613 12.4391 17.552 12.4643C17.491 12.4895 17.4257 12.5025 17.3597 12.5024Z" fill="black"/>
<path d="M12 14.3446C13.2949 14.3446 14.3446 13.2949 14.3446 12C14.3446 10.705 13.2949 9.65527 12 9.65527C10.705 9.65527 9.65527 10.705 9.65527 12C9.65527 13.2949 10.705 14.3446 12 14.3446Z" fill="black"/>
</svg>
