<svg width="24" height="24" viewBox="0 0 24 24" fill="none" xmlns="http://www.w3.org/2000/svg">
<path d="M12 22.5C14.0767 22.5 16.1068 21.8842 17.8335 20.7304C19.5602 19.5767 20.906 17.9368 21.7007 16.0182C22.4954 14.0996 22.7034 11.9884 22.2982 9.95155C21.8931 7.91475 20.8931 6.04383 19.4246 4.57538C17.9562 3.10693 16.0852 2.1069 14.0484 1.70176C12.0116 1.29661 9.90044 1.50455 7.98182 2.29927C6.0632 3.09399 4.42332 4.4398 3.26957 6.16652C2.11581 7.89323 1.5 9.9233 1.5 12C1.5032 14.7838 2.61047 17.4526 4.57891 19.4211C6.54735 21.3895 9.21621 22.4968 12 22.5ZM12 2.66667C13.8024 2.6655 15.5666 3.18661 17.0792 4.16696C18.5917 5.14731 19.7878 6.5449 20.5227 8.1907C21.2577 9.8365 21.5 11.66 21.2205 13.4406C20.9409 15.2213 20.1514 16.8828 18.9475 18.2242V16.6667C18.9465 15.7426 18.6805 14.8382 18.1811 14.0607C17.6818 13.2832 16.9699 12.6652 16.13 12.28C14.1467 14.7708 9.85333 14.7708 7.87 12.28C7.03335 12.6696 6.32445 13.2886 5.82569 14.0651C5.32694 14.8417 5.05882 15.7438 5.0525 16.6667V18.2242C3.84855 16.8828 3.05906 15.2213 2.7795 13.4406C2.49995 11.66 2.74231 9.8365 3.47727 8.1907C4.21224 6.5449 5.40831 5.14731 6.92084 4.16696C8.43337 3.18661 10.1975 2.6655 12 2.66667Z" fill="black"/>
<path d="M12 13.3171C12.8497 13.3177 13.6805 13.0663 14.3874 12.5947C15.0942 12.1231 15.6453 11.4525 15.971 10.6677C16.2967 9.88284 16.3824 9.01907 16.2172 8.18556C16.052 7.35206 15.6433 6.58627 15.0429 5.98502C14.4424 5.38377 13.6772 4.97407 12.8439 4.80773C12.0107 4.6414 11.1468 4.72589 10.3615 5.05053C9.57625 5.37517 8.90489 5.92537 8.43233 6.63157C7.95978 7.33776 7.70724 8.16823 7.70667 9.01794C7.70739 10.1569 8.15977 11.2491 8.9646 12.055C9.76943 12.861 10.861 13.3148 12 13.3171Z" fill="black"/>
</svg>
