<svg width="24" height="24" viewBox="0 0 24 24" fill="none" xmlns="http://www.w3.org/2000/svg">
<path d="M22.2225 10.4625L19.5413 9.72751C19.3897 9.22456 19.1874 8.73831 18.9375 8.27626L20.3175 5.86126C20.3574 5.78915 20.373 5.70617 20.3622 5.6245C20.3514 5.54283 20.3147 5.46678 20.2575 5.40751L18.5925 3.74251C18.5343 3.68475 18.4589 3.64762 18.3776 3.63678C18.2963 3.62595 18.2138 3.64201 18.1425 3.68251L15.7238 5.06251C15.2617 4.81262 14.7755 4.61033 14.2725 4.45876L13.5375 1.77751C13.517 1.69774 13.4705 1.6271 13.4052 1.57682C13.34 1.52654 13.2599 1.4995 13.1775 1.50001H10.8225C10.7402 1.4995 10.66 1.52654 10.5948 1.57682C10.5295 1.6271 10.483 1.69774 10.4625 1.77751L9.72751 4.45876C9.22456 4.61033 8.73831 4.81262 8.27626 5.06251L5.85751 3.68251C5.78623 3.64201 5.70367 3.62595 5.62241 3.63678C5.54115 3.64762 5.46568 3.68475 5.40751 3.74251L3.74251 5.40751C3.68529 5.46678 3.64859 5.54283 3.63779 5.6245C3.62699 5.70617 3.64266 5.78915 3.68251 5.86126L5.06251 8.27626C4.81263 8.73831 4.61034 9.22456 4.45876 9.72751L1.77751 10.4625C1.69774 10.483 1.6271 10.5295 1.57683 10.5948C1.52655 10.66 1.49951 10.7402 1.50001 10.8225V13.1775C1.49951 13.2599 1.52655 13.34 1.57683 13.4052C1.6271 13.4705 1.69774 13.517 1.77751 13.5375L4.45876 14.2725C4.61034 14.7755 4.81263 15.2617 5.06251 15.7238L3.68251 18.1388C3.64266 18.2109 3.62698 18.2938 3.63778 18.3755C3.64858 18.4572 3.68529 18.5332 3.74251 18.5925L5.40751 20.2575C5.46568 20.3153 5.54116 20.3524 5.62241 20.3632C5.70367 20.3741 5.78623 20.358 5.85751 20.3175L8.27626 18.9375C8.73832 19.1874 9.22456 19.3897 9.72751 19.5413L10.4625 22.2225C10.483 22.3023 10.5295 22.3729 10.5948 22.4232C10.66 22.4735 10.7402 22.5005 10.8225 22.5H13.1775C13.2599 22.5005 13.34 22.4735 13.4052 22.4232C13.4705 22.3729 13.517 22.3023 13.5375 22.2225L14.2725 19.5413C14.7755 19.3897 15.2617 19.1874 15.7238 18.9375L18.1425 20.3175C18.2138 20.358 18.2963 20.3741 18.3776 20.3632C18.4589 20.3524 18.5343 20.3153 18.5925 20.2575L20.2575 18.5925C20.3147 18.5332 20.3514 18.4572 20.3622 18.3755C20.373 18.2938 20.3574 18.2109 20.3175 18.1388L18.9375 15.7238C19.1874 15.2617 19.3897 14.7755 19.5413 14.2725L22.2225 13.5375C22.3023 13.517 22.3729 13.4705 22.4232 13.4052C22.4735 13.34 22.5005 13.2599 22.5 13.1775V10.8225C22.5005 10.7402 22.4735 10.66 22.4232 10.5948C22.3729 10.5295 22.3023 10.483 22.2225 10.4625ZM12 15.75C11.2583 15.75 10.5333 15.5301 9.91662 15.118C9.29993 14.706 8.81929 14.1203 8.53546 13.4351C8.25163 12.7498 8.17737 11.9958 8.32206 11.2684C8.46676 10.541 8.82391 9.8728 9.34836 9.34836C9.8728 8.82391 10.541 8.46676 11.2684 8.32206C11.9958 8.17737 12.7498 8.25163 13.4351 8.53546C14.1203 8.81929 14.706 9.29994 15.118 9.91662C15.5301 10.5333 15.75 11.2583 15.75 12C15.7494 12.9944 15.3541 13.9479 14.651 14.651C13.9479 15.3541 12.9944 15.7494 12 15.75Z" fill="black"/>
</svg>
