<svg width="24" height="24" viewBox="0 0 24 24" fill="none" xmlns="http://www.w3.org/2000/svg">
<path d="M15.105 19.6236V20.4598C15.1061 21.0844 14.896 21.691 14.5088 22.1811C15.2325 21.9169 15.8897 21.4977 16.4344 20.953C16.9792 20.4082 17.3983 19.751 17.6625 19.0273C17.1716 19.413 16.5656 19.6229 15.9413 19.6236H15.105Z" fill="black"/>
<path d="M16.7473 1.5H3.85484C3.52732 1.5011 3.21359 1.63196 2.98234 1.8639C2.7511 2.09585 2.6212 2.40998 2.62109 2.7375V21.2625C2.62121 21.59 2.75111 21.9042 2.98235 22.1361C3.21359 22.368 3.52732 22.4989 3.85484 22.5H12.3148C12.8557 22.4994 13.3743 22.2843 13.7567 21.9019C14.1392 21.5194 14.3543 21.0009 14.3548 20.46V19.2488C14.3551 19.1494 14.3947 19.0542 14.465 18.9839C14.5353 18.9137 14.6305 18.874 14.7298 18.8738H15.9411C16.482 18.8732 17.0005 18.6581 17.383 18.2756C17.7654 17.8932 17.9805 17.3746 17.9811 16.8337V2.7375C17.981 2.40998 17.8511 2.09585 17.6198 1.8639C17.3886 1.63196 17.0749 1.5011 16.7473 1.5ZM3.85484 3.57H7.88609C7.98555 3.57 8.08093 3.60951 8.15126 3.67983C8.22159 3.75016 8.26109 3.84554 8.26109 3.945C8.26109 4.04446 8.22159 4.13984 8.15126 4.21017C8.08093 4.28049 7.98555 4.32 7.88609 4.32H3.85484C3.75539 4.32 3.66 4.28049 3.58968 4.21017C3.51935 4.13984 3.47984 4.04446 3.47984 3.945C3.47984 3.84554 3.51935 3.75016 3.58968 3.67983C3.66 3.60951 3.75539 3.57 3.85484 3.57ZM3.85484 5.4675H7.88609C7.98555 5.4675 8.08093 5.50701 8.15126 5.57733C8.22159 5.64766 8.26109 5.74304 8.26109 5.8425C8.26109 5.94196 8.22159 6.03734 8.15126 6.10767C8.08093 6.17799 7.98555 6.2175 7.88609 6.2175H3.85484C3.75539 6.2175 3.66 6.17799 3.58968 6.10767C3.51935 6.03734 3.47984 5.94196 3.47984 5.8425C3.47984 5.74304 3.51935 5.64766 3.58968 5.57733C3.66 5.50701 3.75539 5.4675 3.85484 5.4675ZM13.1211 20.415H3.85484C3.75539 20.415 3.66 20.3755 3.58968 20.3052C3.51935 20.2348 3.47984 20.1395 3.47984 20.04C3.47984 19.9405 3.51935 19.8452 3.58968 19.7748C3.66 19.7045 3.75539 19.665 3.85484 19.665H13.1211C13.2206 19.665 13.3159 19.7045 13.3863 19.7748C13.4566 19.8452 13.4961 19.9405 13.4961 20.04C13.4961 20.1395 13.4566 20.2348 13.3863 20.3052C13.3159 20.3755 13.2206 20.415 13.1211 20.415ZM13.1211 18.1163H3.85484C3.75539 18.1163 3.66 18.0767 3.58968 18.0064C3.51935 17.9361 3.47984 17.8407 3.47984 17.7413C3.47984 17.6418 3.51935 17.5464 3.58968 17.4761C3.66 17.4058 3.75539 17.3663 3.85484 17.3663H13.1211C13.2206 17.3663 13.3159 17.4058 13.3863 17.4761C13.4566 17.5464 13.4961 17.6418 13.4961 17.7413C13.4961 17.8407 13.4566 17.9361 13.3863 18.0064C13.3159 18.0767 13.2206 18.1163 13.1211 18.1163ZM16.7473 15.8175H3.85484C3.75539 15.8175 3.66 15.778 3.58968 15.7077C3.51935 15.6373 3.47984 15.542 3.47984 15.4425C3.47984 15.343 3.51935 15.2477 3.58968 15.1773C3.66 15.107 3.75539 15.0675 3.85484 15.0675H16.7473C16.8468 15.0675 16.9422 15.107 17.0125 15.1773C17.0828 15.2477 17.1223 15.343 17.1223 15.4425C17.1223 15.542 17.0828 15.6373 17.0125 15.7077C16.9422 15.778 16.8468 15.8175 16.7473 15.8175ZM16.7473 13.5187H3.85484C3.75539 13.5187 3.66 13.4792 3.58968 13.4089C3.51935 13.3386 3.47984 13.2432 3.47984 13.1437C3.47984 13.0443 3.51935 12.9489 3.58968 12.8786C3.66 12.8083 3.75539 12.7687 3.85484 12.7687H16.7473C16.8468 12.7687 16.9422 12.8083 17.0125 12.8786C17.0828 12.9489 17.1223 13.0443 17.1223 13.1437C17.1223 13.2432 17.0828 13.3386 17.0125 13.4089C16.9422 13.4792 16.8468 13.5187 16.7473 13.5187ZM16.7473 11.2162H3.85484C3.75539 11.2162 3.66 11.1767 3.58968 11.1064C3.51935 11.0361 3.47984 10.9407 3.47984 10.8412C3.47984 10.7418 3.51935 10.6464 3.58968 10.5761C3.66 10.5058 3.75539 10.4662 3.85484 10.4662H16.7473C16.8468 10.4662 16.9422 10.5058 17.0125 10.5761C17.0828 10.6464 17.1223 10.7418 17.1223 10.8412C17.1223 10.9407 17.0828 11.0361 17.0125 11.1064C16.9422 11.1767 16.8468 11.2162 16.7473 11.2162ZM16.7473 8.9175H3.85484C3.75539 8.9175 3.66 8.87799 3.58968 8.80766C3.51935 8.73734 3.47984 8.64196 3.47984 8.5425C3.47984 8.44304 3.51935 8.34766 3.58968 8.27734C3.66 8.20701 3.75539 8.1675 3.85484 8.1675H16.7473C16.8468 8.1675 16.9422 8.20701 17.0125 8.27734C17.0828 8.34766 17.1223 8.44304 17.1223 8.5425C17.1223 8.64196 17.0828 8.73734 17.0125 8.80766C16.9422 8.87799 16.8468 8.9175 16.7473 8.9175Z" fill="black"/>
<path d="M20.2539 5.71875C19.9558 5.71962 19.6702 5.83843 19.4594 6.04922C19.2486 6.26001 19.1298 6.54565 19.1289 6.84375V7.5975H21.3789V6.84375C21.378 6.54565 21.2592 6.26001 21.0484 6.04922C20.8377 5.83843 20.552 5.71962 20.2539 5.71875Z" fill="black"/>
<path d="M19.1289 17.0777C19.1283 17.4475 19.238 17.8092 19.4439 18.1164L19.9427 18.8627C19.9764 18.9145 20.0225 18.957 20.0769 18.9865C20.1312 19.016 20.1921 19.0314 20.2539 19.0314C20.3157 19.0314 20.3766 19.016 20.4309 18.9865C20.4853 18.957 20.5314 18.9145 20.5652 18.8627L21.0639 18.1164C21.2699 17.8092 21.3795 17.4475 21.3789 17.0777V8.34766H19.1289V17.0777Z" fill="black"/>
</svg>
