<svg width="24" height="24" viewBox="0 0 24 24" fill="none" xmlns="http://www.w3.org/2000/svg">
<path d="M10.3555 11.0461C12.4432 12.3221 15.3621 10.6835 15.3029 8.18211C15.3016 7.30645 14.9532 6.46703 14.334 5.84784C13.7148 5.22865 12.8754 4.88021 11.9997 4.87891C8.614 4.90223 7.46298 9.3792 10.3555 11.0461Z" fill="black"/>
<path d="M6.00098 14.5409V15.8134C6.00162 16.0989 6.11533 16.3725 6.31722 16.5744C6.51912 16.7763 6.79276 16.89 7.07827 16.8907H16.9203C17.2058 16.89 17.4795 16.7763 17.6814 16.5744C17.8833 16.3725 17.997 16.0989 17.9976 15.8134V14.5409C17.998 13.9452 17.8108 13.3646 17.4624 12.8815C17.114 12.3983 16.6223 12.0373 16.057 11.8495L14.5292 11.3428C13.8128 11.9209 12.9199 12.2361 11.9993 12.2361C11.0787 12.2361 10.1858 11.9209 9.46933 11.3428L7.94158 11.8495C7.37631 12.0373 6.88456 12.3984 6.53619 12.8815C6.18783 13.3646 6.00055 13.9453 6.00098 14.5409Z" fill="black"/>
<path d="M17.6459 4.05257C17.7001 3.9397 17.932 3.48325 17.9837 3.37682C16.2174 2.14794 14.1156 1.49267 11.9639 1.50006C9.81213 1.50745 7.71485 2.17713 5.95703 3.41811C5.99467 3.48755 6.25103 4.013 6.29485 4.09752C9.44801 1.67992 14.4703 1.65962 17.6459 4.05257Z" fill="black"/>
<path d="M18.2506 4.52176C18.0165 4.98934 17.7861 5.44906 17.5932 5.83508C17.5586 5.90546 17.5469 5.98489 17.5598 6.06225C17.5726 6.1396 17.6093 6.211 17.6647 6.26645C17.7202 6.3219 17.7916 6.35862 17.8689 6.37147C17.9463 6.38431 18.0257 6.37265 18.0961 6.3381L19.3648 5.70373C19.7732 5.49896 20.6809 5.0421 21.099 4.83664C21.1521 4.81029 21.1982 4.77171 21.2334 4.72406C21.2687 4.67642 21.2921 4.62108 21.3017 4.56261C21.3105 4.50376 21.3055 4.44369 21.2873 4.38705C21.2691 4.33042 21.2381 4.27875 21.1966 4.23604L19.6952 2.73457C19.6528 2.69322 19.6014 2.66239 19.5449 2.64455C19.4885 2.62671 19.4287 2.62236 19.3703 2.63185C19.3118 2.64134 19.2565 2.66442 19.2086 2.69921C19.1607 2.734 19.1217 2.77954 19.0946 2.83217C18.8965 3.23056 18.6575 3.70877 18.4147 4.19376L18.25 4.52131L18.2506 4.52176Z" fill="black"/>
<path d="M17.6459 19.9682C14.4714 22.3609 9.45168 22.3391 6.2986 19.9268C6.25574 20.0094 5.99641 20.5304 5.95703 20.6025C9.3209 23.1168 14.6008 23.135 17.9837 20.6437L17.9011 20.4749L17.6459 19.9682Z" fill="black"/>
<path d="M4.08755 17.7157C2.88766 16.0561 2.24145 14.0606 2.24078 12.0127C2.2401 9.96476 2.88501 7.96875 4.08381 6.30839C4.00137 6.26557 3.48025 6.00616 3.40816 5.9668C0.875567 9.37083 0.875728 14.6498 3.40827 18.0535C3.4775 18.0159 4.00311 17.7595 4.08755 17.7157Z" fill="black"/>
<path d="M20.3891 17.9896L20.5731 18.0797C23.1298 14.6672 23.1324 9.34895 20.5693 5.94043C20.4543 5.99716 20.0166 6.21478 19.8937 6.27827C22.3555 9.4858 22.3553 14.5346 19.8936 17.7419L20.3891 17.9896Z" fill="black"/>
<path d="M2.82213 4.83662C3.23632 5.04147 4.15075 5.50002 4.55631 5.70371L5.82504 6.33808C5.8954 6.37448 5.97551 6.38756 6.05379 6.37541C6.13207 6.36326 6.20445 6.32652 6.26047 6.27051C6.31648 6.21449 6.35322 6.14211 6.36537 6.06383C6.37752 5.98555 6.36444 5.90544 6.32804 5.83508L5.69367 4.56635C5.48886 4.15806 5.03214 3.25024 4.82658 2.83217C4.79951 2.77954 4.76047 2.734 4.71259 2.69921C4.66471 2.66441 4.60934 2.64134 4.55092 2.63185C4.4925 2.62236 4.43267 2.62671 4.37624 2.64455C4.31981 2.66239 4.26835 2.69322 4.22601 2.73457L2.72453 4.23603C2.68311 4.27873 2.65208 4.3304 2.63385 4.38704C2.61563 4.44367 2.6107 4.50374 2.61944 4.56259C2.62909 4.62106 2.6525 4.6764 2.68774 4.72404C2.72298 4.77169 2.76904 4.81027 2.82213 4.83662Z" fill="black"/>
<path d="M5.82534 17.6822C5.38429 17.9046 4.29737 18.4432 3.86968 18.6619L2.82242 19.1837C2.76979 19.2107 2.72424 19.2498 2.68945 19.2976C2.65465 19.3455 2.63158 19.4009 2.62209 19.4593C2.61259 19.5177 2.61694 19.5776 2.63478 19.634C2.65262 19.6904 2.68345 19.7419 2.7248 19.7842L4.22628 21.2857C4.26858 21.3271 4.32003 21.358 4.37648 21.3759C4.43292 21.3938 4.49278 21.3982 4.55123 21.3887C4.60967 21.3792 4.66507 21.3561 4.71295 21.3212C4.76083 21.2864 4.79985 21.2408 4.82687 21.1881C5.26233 20.3142 5.88492 19.0695 6.32833 18.1852C6.36298 18.1148 6.37472 18.0353 6.36192 17.9579C6.34911 17.8805 6.3124 17.8091 6.25692 17.7536C6.20145 17.6981 6.13 17.6614 6.0526 17.6486C5.9752 17.6358 5.89573 17.6475 5.82534 17.6822Z" fill="black"/>
<path d="M21.0992 19.1836L20.0519 18.6619C19.6203 18.4413 18.5417 17.9085 18.0963 17.6822C18.0259 17.6475 17.9465 17.6358 17.8691 17.6486C17.7917 17.6614 17.7202 17.6981 17.6647 17.7536C17.6093 17.8091 17.5725 17.8805 17.5597 17.9579C17.5469 18.0353 17.5587 18.1148 17.5933 18.1852C17.7883 18.5758 18.0178 19.0338 18.2506 19.4987L18.2502 19.499L18.3688 19.7348C18.6265 20.2495 18.8824 20.7609 19.0948 21.1881C19.1218 21.2408 19.1608 21.2864 19.2087 21.3212C19.2565 21.356 19.3119 21.3791 19.3704 21.3886C19.4288 21.3981 19.4887 21.3938 19.5451 21.3759C19.6016 21.358 19.653 21.3271 19.6953 21.2857L21.1968 19.7842C21.2381 19.7419 21.269 19.6904 21.2868 19.634C21.3047 19.5775 21.309 19.5177 21.2995 19.4593C21.29 19.4009 21.2669 19.3455 21.2321 19.2976C21.1974 19.2498 21.1518 19.2107 21.0992 19.1836Z" fill="black"/>
</svg>
