<svg width="24" height="24" viewBox="0 0 24 24" fill="none" xmlns="http://www.w3.org/2000/svg">
<path d="M9.375 16.5H11.625V17.25H9.375V16.5Z" fill="black"/>
<path d="M6.375 22.125C6.3753 22.2244 6.4149 22.3196 6.48516 22.3898C6.55542 22.4601 6.65064 22.4997 6.75 22.5H8.625V16.125C8.6253 16.0256 8.6649 15.9304 8.73516 15.8602C8.80542 15.7899 8.90064 15.7503 9 15.75H15C15.0994 15.7503 15.1946 15.7899 15.2648 15.8602C15.3351 15.9304 15.3747 16.0256 15.375 16.125V22.5H17.25C17.3494 22.4997 17.4446 22.4601 17.5148 22.3898C17.5851 22.3196 17.6247 22.2244 17.625 22.125V13.125H6.375V22.125Z" fill="black"/>
<path d="M12.375 16.5H14.625V17.25H12.375V16.5Z" fill="black"/>
<path d="M16.875 6.74978H12.375V4.51853C12.7109 4.56157 13.0355 4.6685 13.3312 4.83353C13.8404 5.11863 14.4166 5.26235 15 5.24978C15.0994 5.24949 15.1946 5.20988 15.2648 5.13962C15.3351 5.06936 15.3747 4.97415 15.375 4.87478V2.62478C15.3747 2.52542 15.3351 2.43021 15.2648 2.35995C15.1946 2.28968 15.0994 2.25008 15 2.24978C14.534 2.26289 14.0734 2.14742 13.6688 1.91603C13.1596 1.63092 12.5834 1.48721 12 1.49978C11.9006 1.50008 11.8054 1.53968 11.7352 1.60995C11.6649 1.68021 11.6253 1.77542 11.625 1.87478V6.74978H7.125C6.92627 6.75036 6.73584 6.82957 6.59531 6.9701C6.45479 7.11062 6.37558 7.30105 6.375 7.49978V12.3748H17.625V7.49978C17.6244 7.30105 17.5452 7.11062 17.4047 6.9701C17.2642 6.82957 17.0737 6.75036 16.875 6.74978ZM12 11.0623C11.7033 11.0623 11.4133 10.9743 11.1666 10.8095C10.92 10.6447 10.7277 10.4104 10.6142 10.1363C10.5006 9.86222 10.4709 9.56062 10.5288 9.26965C10.5867 8.97868 10.7296 8.7114 10.9393 8.50162C11.1491 8.29185 11.4164 8.14898 11.7074 8.09111C11.9983 8.03323 12.2999 8.06293 12.574 8.17646C12.8481 8.29 13.0824 8.48225 13.2472 8.72893C13.412 8.9756 13.5 9.26561 13.5 9.56228C13.5001 9.75928 13.4613 9.95436 13.3859 10.1364C13.3106 10.3184 13.2001 10.4838 13.0608 10.6231C12.9215 10.7624 12.7561 10.8728 12.5741 10.9482C12.3921 11.0236 12.197 11.0623 12 11.0623Z" fill="black"/>
<path d="M9.375 18H11.625V22.5H9.375V18Z" fill="black"/>
<path d="M12.375 18H14.625V22.5H12.375V18Z" fill="black"/>
<path d="M21.75 10.125H18.375V12.375H22.5V10.875C22.4994 10.6763 22.4202 10.4858 22.2797 10.3453C22.1392 10.2048 21.9487 10.1256 21.75 10.125Z" fill="black"/>
<path d="M18.3751 22.125C18.3759 22.2531 18.353 22.3802 18.3076 22.5H21.7501C21.9489 22.4994 22.1393 22.4202 22.2798 22.2797C22.4203 22.1392 22.4995 21.9487 22.5001 21.75V13.125H18.3751V22.125Z" fill="black"/>
<path d="M5.625 10.125H2.25C2.05127 10.1256 1.86084 10.2048 1.72031 10.3453C1.57978 10.4858 1.50058 10.6763 1.5 10.875V12.375H5.625V10.125Z" fill="black"/>
<path d="M5.625 13.125H1.5V21.75C1.50058 21.9487 1.57979 22.1392 1.72032 22.2797C1.86084 22.4202 2.05127 22.4994 2.25 22.5H5.6925C5.64709 22.3802 5.6242 22.2531 5.625 22.125V13.125Z" fill="black"/>
<path d="M12 10.3125C12.4142 10.3125 12.75 9.97671 12.75 9.5625C12.75 9.14829 12.4142 8.8125 12 8.8125C11.5858 8.8125 11.25 9.14829 11.25 9.5625C11.25 9.97671 11.5858 10.3125 12 10.3125Z" fill="black"/>
</svg>
