<svg width="95" height="74" viewBox="0 0 95 74" fill="none" xmlns="http://www.w3.org/2000/svg">
<path d="M0 40C0 18.4609 17.4609 1 39 1H86V69H0V40Z" fill="#A6A6A6"/>
<path fill-rule="evenodd" clip-rule="evenodd" d="M18.6 14.9705C18.7 14.9205 18.8 14.8605 18.9 14.8105C18.58 15.0405 18.27 15.2905 17.97 15.5605C18.18 15.3605 18.38 15.1605 18.6 14.9705Z" fill="#D12859"/>
<g filter="url(#filter0_d_12294_37173)">
<path fill-rule="evenodd" clip-rule="evenodd" d="M52.56 43.1495L53.11 43.3895C50.55 50.2995 44.65 55.5095 37.34 57.3195C35.45 57.7895 33.5 58.0295 31.54 58.0295C28.01 58.0295 24.53 57.2395 21.48 55.7495H21.47L21.4 55.7095C20.66 55.3395 19.96 54.9395 19.3 54.5195C15.22 51.8695 12.29 47.8995 10.76 43.1395C10.61 42.6795 10.48 42.2195 10.36 41.7495C10.29 41.5195 10.23 41.2795 10.18 41.0395C10.12 40.7895 10.07 40.5495 10.02 40.2995C9.70003 38.6195 9.53003 36.8695 9.53003 35.0595C9.53003 29.0795 11.72 23.5195 15.68 19.4095C19.82 15.1195 25.6 12.7695 31.95 12.7695C34.13 12.7695 36.3 13.0495 38.42 13.6095C42.36 14.6395 45.86 16.6295 48.55 19.3495C50.69 21.5195 52.29 24.1495 53.32 27.1395L52.77 27.3695C49.84 21.4195 43.88 17.7295 37.22 17.7295C36.95 17.7295 36.67 17.7395 36.4 17.7495L36.29 17.7595C36.01 17.7695 35.74 17.7895 35.51 17.7995L35.47 17.8195L35.41 17.8295C34.6 17.8995 33.78 18.0495 32.97 18.2595L32.39 18.4095C32.23 18.4595 32.09 18.4995 31.96 18.5395L31.26 18.7695L30.7 18.9995C30.61 19.0295 30.52 19.0695 30.41 19.1195C30.24 19.1795 30.08 19.2595 29.9 19.3595L29.62 19.4795C29.44 19.5595 29.27 19.6495 29.11 19.7395L28.83 19.8995C28.65 19.9795 28.49 20.0795 28.33 20.1695L28.08 20.3295C27.91 20.4295 27.75 20.5395 27.56 20.6695L27.37 20.7895L26.88 21.1295C26.85 21.1695 26.8 21.2095 26.74 21.2495C26.35 21.5395 25.98 21.8595 25.56 22.2295L25.09 22.6795C25.03 22.7295 24.97 22.7895 24.88 22.8795C24.78 22.9795 24.69 23.0795 24.55 23.2295C24.46 23.3295 24.36 23.4295 24.29 23.5095C24.19 23.6195 24.1 23.7295 24.01 23.8295L23.46 24.5195L23.12 24.9695L22.93 25.2395C22.8 25.4195 22.69 25.5995 22.58 25.7695L22.44 25.9995C22.1 26.5295 21.82 27.0595 21.56 27.5995C20.44 29.9495 19.87 32.4595 19.87 35.0595C19.87 44.6195 27.66 52.3995 37.22 52.3995C43.68 52.3995 49.55 48.8495 52.56 43.1495Z" fill="#FFC653"/>
</g>
<g filter="url(#filter1_d_12294_37173)">
<path fill-rule="evenodd" clip-rule="evenodd" d="M37.22 62.1605C32.93 62.1605 28.78 61.1705 25.03 59.2805C26.95 59.8105 29.02 60.0805 31.15 60.0805C32.56 60.0805 33.99 59.9605 35.42 59.7305C35.64 59.7005 35.88 59.6505 36.11 59.6105L36.43 59.5505L36.72 59.4805C36.97 59.4305 37.21 59.3805 37.45 59.3105C37.54 59.2905 37.66 59.2605 37.77 59.2305C38.01 59.1705 38.27 59.1005 38.52 59.0305L38.73 58.9705C39.06 58.8705 39.39 58.7705 39.71 58.6605C40.09 58.5305 40.38 58.4305 40.66 58.3205C40.73 58.2905 40.79 58.2705 40.85 58.2505C41.13 58.1405 41.37 58.0405 41.61 57.9405C41.7 57.9005 41.77 57.8705 41.83 57.8405C42.36 57.6105 42.94 57.3305 43.65 56.9605C43.65 56.9605 44.32 56.5905 44.53 56.4605C44.59 56.4205 44.62 56.4005 44.65 56.3905C44.94 56.2205 45.19 56.0605 45.46 55.8805L45.51 55.8605L45.58 55.8005C46.09 55.4805 46.62 55.1005 47.13 54.7005H47.15L47.26 54.6005C47.5 54.4105 47.76 54.2005 48.01 53.9905C53.25 49.5005 56.27 43.1605 56.56 36.1105C57.05 23.8205 49.77 14.1705 38.01 11.5305C36.08 11.1005 33.97 10.8705 31.9 10.8705C31.66 10.8705 31.41 10.8705 31.17 10.8805H31.11L31.05 10.9105L30.99 10.8905C27.55 10.9805 24.39 11.6605 21.78 12.8305C26.3 9.68047 31.67 7.98047 37.25 7.98047C46.97 7.98047 55.98 13.2305 60.79 21.6805L61.17 22.3505L61.22 22.4305L61.32 22.6505L61.76 23.5305C61.76 23.5305 62.07 24.2205 62.09 24.2505C62.16 24.4105 62.23 24.5605 62.3 24.7305L62.35 24.8705C62.42 25.0205 62.48 25.1805 62.54 25.3505C62.57 25.4205 62.59 25.4805 62.61 25.5205L62.78 25.9905C62.81 26.0905 62.82 26.1305 62.83 26.1605L63 26.6405V26.6705L63.05 26.8105C63.11 26.9605 63.15 27.1005 63.19 27.2605L63.23 27.3805L63.38 27.9205C63.4 27.9905 63.42 28.0305 63.42 28.0805C63.48 28.2805 63.52 28.4305 63.56 28.5905L63.6 28.7905C63.64 28.9405 63.68 29.0905 63.7 29.2405L63.76 29.4805C63.78 29.5805 63.79 29.6505 63.8 29.7105L63.81 29.8105L63.82 29.8305L63.88 30.1405C63.91 30.2805 63.94 30.4405 63.96 30.5905C63.98 30.6805 63.99 30.7305 64 30.7805C64.04 30.9805 64.06 31.1305 64.07 31.2805L64.16 31.9805C64.17 32.0505 64.18 32.1205 64.18 32.1805L64.23 32.6805C64.23 32.7305 64.24 32.8205 64.25 32.9205L64.29 33.6205C64.3 33.7805 64.31 33.9505 64.31 34.1105C64.32 34.2105 64.32 34.2605 64.32 34.3205C64.33 34.5705 64.33 34.8005 64.33 35.0405C64.3 50.0005 52.16 62.1605 37.22 62.1605Z" fill="#FFC653"/>
</g>
<g filter="url(#filter2_d_12294_37173)">
<path fill-rule="evenodd" clip-rule="evenodd" d="M37.2201 50.4599C28.7301 50.4599 21.8301 43.5499 21.8301 35.0599C21.8301 26.5699 28.7301 19.6699 37.2201 19.6699C45.7001 19.6699 52.6001 26.5699 52.6001 35.0599C52.6101 43.5499 45.7001 50.4599 37.2201 50.4599Z" fill="url(#paint0_linear_12294_37173)"/>
</g>
<path fill-rule="evenodd" clip-rule="evenodd" d="M73.11 26.1209C73.11 33.3909 71.01 40.4209 67.01 46.4509C65.9 48.1409 64.66 49.7209 63.3 51.1909C63.97 49.7509 64.56 48.2509 65.05 46.7309L64.49 46.5209C65.98 42.9909 66.8 39.1209 66.8 35.0609C66.8 34.7909 66.8 34.5209 66.79 34.3309C66.79 34.2309 66.79 34.1309 66.78 34.0009C66.78 33.8209 66.77 33.6509 66.76 33.5009L66.71 32.6609V32.6109L66.65 32.0209C66.64 31.9009 66.63 31.7809 66.62 31.6809L66.53 30.9909C66.5 30.8009 66.48 30.6109 66.45 30.4209C66.43 30.3509 66.42 30.2709 66.4 30.1609C66.37 29.9909 66.35 29.8409 66.32 29.7209L66.27 29.4009L66.12 28.6609L66.11 28.6409C66.08 28.5109 65.95 27.9709 65.95 27.9709C65.92 27.8209 65.88 27.6709 65.83 27.4909C65.81 27.4109 65.79 27.3409 65.76 27.2709L65.61 26.7209L65.57 26.5709C65.52 26.4009 65.47 26.2309 65.41 26.0709V26.0309L65.39 25.9709L65.95 25.8109C63.47 14.8709 56.45 5.62094 46.77 0.210938H62.5C69.35 7.16094 73.11 16.3609 73.11 26.1209Z" fill="white"/>
<path fill-rule="evenodd" clip-rule="evenodd" d="M66.86 49.7501C65.987 57.5727 62.3378 63.293 56.6146 68.1837C54.6893 69.829 52.1861 70.5901 49.6536 70.5901H0V41.8301C6.26 56.2901 20.32 65.5601 36.17 65.5601C44.3 65.5601 52.1 63.1201 58.74 58.4901L59.08 58.2501L59.33 57.9201C60.49 56.3401 61.53 56.6801 62.43 54.9501C64.06 53.3601 65.54 51.6201 66.86 49.7501Z" fill="white"/>
<path fill-rule="evenodd" clip-rule="evenodd" d="M62.3899 22.9393C58.1099 13.0393 48.2499 6.1193 36.7799 6.1193C26.2099 6.1193 17.0199 11.9893 12.2799 20.6393C9.1799 24.7893 7.4999 29.9293 7.4999 35.3793C7.4999 36.4693 7.5599 37.5493 7.6699 38.5993C7.6699 38.6293 7.6799 38.6593 7.6799 38.6893C8.0799 42.2993 9.1399 45.6393 10.7699 48.5693C13.0499 53.0693 16.3599 56.9593 20.3999 59.9093C12.0599 56.0093 5.3399 49.0393 1.7699 40.0393L1.7499 39.9793C1.0999 38.3193 0.559902 36.5893 0.149902 34.8093C2.1199 15.3093 18.4799 0.529297 38.2099 0.529297H40.8599C42.9799 1.3593 44.9999 2.3593 46.8899 3.5293C54.1899 8.0193 59.6499 14.8693 62.3899 22.9393Z" fill="white"/>
<path d="M94.6999 0V69.43H58.9199C64.7599 63.76 68.5199 56.19 69.4199 48.04L69.1299 47.93C69.1399 47.91 69.1499 47.9 69.1599 47.88C73.4299 41.44 75.6899 33.91 75.6899 26.12C75.6899 16.4 72.2099 7.21 65.8299 0L94.6999 0Z" fill="white"/>
<defs>
<filter id="filter0_d_12294_37173" x="2.53003" y="9.76953" width="57.79" height="59.2598" filterUnits="userSpaceOnUse" color-interpolation-filters="sRGB">
<feFlood flood-opacity="0" result="BackgroundImageFix"/>
<feColorMatrix in="SourceAlpha" type="matrix" values="0 0 0 0 0 0 0 0 0 0 0 0 0 0 0 0 0 0 127 0" result="hardAlpha"/>
<feOffset dy="4"/>
<feGaussianBlur stdDeviation="3.5"/>
<feComposite in2="hardAlpha" operator="out"/>
<feColorMatrix type="matrix" values="0 0 0 0 0.942308 0 0 0 0 0.724615 0 0 0 0 0.28541 0 0 0 1 0"/>
<feBlend mode="normal" in2="BackgroundImageFix" result="effect1_dropShadow_12294_37173"/>
<feBlend mode="normal" in="SourceGraphic" in2="effect1_dropShadow_12294_37173" result="shape"/>
</filter>
<filter id="filter1_d_12294_37173" x="14.78" y="4.98047" width="56.55" height="68.1797" filterUnits="userSpaceOnUse" color-interpolation-filters="sRGB">
<feFlood flood-opacity="0" result="BackgroundImageFix"/>
<feColorMatrix in="SourceAlpha" type="matrix" values="0 0 0 0 0 0 0 0 0 0 0 0 0 0 0 0 0 0 127 0" result="hardAlpha"/>
<feOffset dy="4"/>
<feGaussianBlur stdDeviation="3.5"/>
<feComposite in2="hardAlpha" operator="out"/>
<feColorMatrix type="matrix" values="0 0 0 0 0.942308 0 0 0 0 0.724615 0 0 0 0 0.28541 0 0 0 1 0"/>
<feBlend mode="normal" in2="BackgroundImageFix" result="effect1_dropShadow_12294_37173"/>
<feBlend mode="normal" in="SourceGraphic" in2="effect1_dropShadow_12294_37173" result="shape"/>
</filter>
<filter id="filter2_d_12294_37173" x="11.8071" y="12.9879" width="50.816" height="50.8351" filterUnits="userSpaceOnUse" color-interpolation-filters="sRGB">
<feFlood flood-opacity="0" result="BackgroundImageFix"/>
<feColorMatrix in="SourceAlpha" type="matrix" values="0 0 0 0 0 0 0 0 0 0 0 0 0 0 0 0 0 0 127 0" result="hardAlpha"/>
<feOffset dy="3.341"/>
<feGaussianBlur stdDeviation="5.0115"/>
<feComposite in2="hardAlpha" operator="out"/>
<feColorMatrix type="matrix" values="0 0 0 0 1 0 0 0 0 0.921569 0 0 0 0 0.611765 0 0 0 1 0"/>
<feBlend mode="normal" in2="BackgroundImageFix" result="effect1_dropShadow_12294_37173"/>
<feBlend mode="normal" in="SourceGraphic" in2="effect1_dropShadow_12294_37173" result="shape"/>
</filter>
<linearGradient id="paint0_linear_12294_37173" x1="37.2151" y1="19.6699" x2="37.2151" y2="50.4599" gradientUnits="userSpaceOnUse">
<stop stop-color="#FFC653"/>
<stop offset="1" stop-color="#FFE8B9"/>
</linearGradient>
</defs>
</svg>
