<svg width="95" height="74" viewBox="0 0 95 74" fill="none" xmlns="http://www.w3.org/2000/svg">
<path d="M94.6997 30.5898C94.6997 52.1289 77.2388 69.5898 55.6997 69.5898L8.69971 69.5899L8.6997 1.58985L94.6997 1.58984L94.6997 30.5898Z" fill="#A6A6A6"/>
<path fill-rule="evenodd" clip-rule="evenodd" d="M76.0995 55.6193C75.9995 55.6693 75.8995 55.7293 75.7995 55.7793C76.1195 55.5493 76.4295 55.2993 76.7295 55.0293C76.5195 55.2293 76.3195 55.4293 76.0995 55.6193Z" fill="#D12859"/>
<g filter="url(#filter0_d_12294_37241)">
<path fill-rule="evenodd" clip-rule="evenodd" d="M42.1394 27.4403L41.5894 27.2003C44.1494 20.2903 50.0494 15.0803 57.3594 13.2703C59.2494 12.8003 61.1994 12.5603 63.1594 12.5603C66.6894 12.5603 70.1694 13.3503 73.2194 14.8403L73.2294 14.8403L73.2994 14.8803C74.0394 15.2503 74.7394 15.6503 75.3994 16.0703C79.4794 18.7203 82.4094 22.6903 83.9394 27.4503C84.0894 27.9103 84.2194 28.3703 84.3394 28.8403C84.4094 29.0703 84.4694 29.3103 84.5194 29.5503C84.5794 29.8003 84.6294 30.0403 84.6794 30.2903C84.9994 31.9703 85.1694 33.7203 85.1694 35.5303C85.1694 41.5103 82.9794 47.0703 79.0194 51.1803C74.8794 55.4703 69.0994 57.8203 62.7494 57.8203C60.5694 57.8203 58.3994 57.5403 56.2794 56.9803C52.3394 55.9503 48.8394 53.9603 46.1494 51.2403C44.0094 49.0703 42.4094 46.4403 41.3794 43.4503L41.9294 43.2203C44.8594 49.1703 50.8194 52.8603 57.4794 52.8603C57.7494 52.8603 58.0294 52.8503 58.2994 52.8403L58.4094 52.8303C58.6894 52.8203 58.9594 52.8003 59.1894 52.7903L59.2294 52.7703L59.2894 52.7603C60.0994 52.6903 60.9194 52.5403 61.7294 52.3303L62.3094 52.1803C62.4694 52.1303 62.6094 52.0903 62.7394 52.0503L63.4394 51.8203L63.9994 51.5903C64.0894 51.5603 64.1794 51.5203 64.2894 51.4703C64.4594 51.4103 64.6194 51.3303 64.7994 51.2303L65.0794 51.1103C65.2594 51.0303 65.4294 50.9403 65.5894 50.8503L65.8694 50.6903C66.0494 50.6103 66.2094 50.5103 66.3694 50.4203L66.6194 50.2603C66.7894 50.1603 66.9494 50.0503 67.1394 49.9203L67.3294 49.8003L67.8194 49.4603C67.8494 49.4203 67.8994 49.3803 67.9594 49.3403C68.3494 49.0503 68.7194 48.7303 69.1394 48.3603L69.6094 47.9103C69.6694 47.8603 69.7294 47.8003 69.8194 47.7103C69.9194 47.6103 70.0094 47.5103 70.1494 47.3603C70.2394 47.2603 70.3394 47.1603 70.4094 47.0803C70.5094 46.9703 70.5994 46.8603 70.6894 46.7603L71.2394 46.0703L71.5794 45.6203L71.7694 45.3503C71.8994 45.1703 72.0094 44.9903 72.1194 44.8203L72.2594 44.5903C72.5994 44.0603 72.8794 43.5303 73.1394 42.9903C74.2594 40.6403 74.8294 38.1303 74.8294 35.5303C74.8294 25.9703 67.0394 18.1903 57.4794 18.1903C51.0194 18.1903 45.1494 21.7403 42.1394 27.4403Z" fill="#FFC653"/>
</g>
<g filter="url(#filter1_d_12294_37241)">
<path fill-rule="evenodd" clip-rule="evenodd" d="M57.4794 8.42938C61.7694 8.42938 65.9194 9.41938 69.6694 11.3094C67.7494 10.7794 65.6794 10.5094 63.5494 10.5094C62.1394 10.5094 60.7094 10.6294 59.2794 10.8594C59.0594 10.8894 58.8194 10.9394 58.5894 10.9794L58.2694 11.0394L57.9794 11.1094C57.7294 11.1594 57.4894 11.2094 57.2494 11.2794C57.1594 11.2994 57.0394 11.3294 56.9294 11.3594C56.6894 11.4194 56.4294 11.4894 56.1794 11.5594L55.9694 11.6194C55.6394 11.7194 55.3094 11.8194 54.9894 11.9294C54.6094 12.0594 54.3194 12.1594 54.0394 12.2694C53.9694 12.2994 53.9094 12.3194 53.8494 12.3394C53.5694 12.4494 53.3294 12.5494 53.0894 12.6494C52.9994 12.6894 52.9294 12.7194 52.8694 12.7494C52.3394 12.9794 51.7594 13.2594 51.0494 13.6294C51.0494 13.6294 50.3794 13.9994 50.1694 14.1294C50.1094 14.1694 50.0794 14.1894 50.0494 14.1994C49.7594 14.3694 49.5094 14.5294 49.2394 14.7094L49.1894 14.7294L49.1194 14.7894C48.6094 15.1094 48.0794 15.4894 47.5694 15.8894L47.5494 15.8894L47.4394 15.9894C47.1994 16.1794 46.9394 16.3894 46.6894 16.5994C41.4494 21.0894 38.4294 27.4294 38.1394 34.4794C37.6494 46.7694 44.9294 56.4194 56.6894 59.0594C58.6194 59.4894 60.7294 59.7194 62.7994 59.7194C63.0394 59.7194 63.2894 59.7194 63.5294 59.7094L63.5894 59.7094L63.6494 59.6794L63.7094 59.6994C67.1494 59.6094 70.3094 58.9294 72.9194 57.7594C68.3994 60.9094 63.0294 62.6094 57.4494 62.6094C47.7294 62.6094 38.7194 57.3594 33.9094 48.9094L33.5294 48.2394L33.4794 48.1594L33.3794 47.9394L32.9394 47.0594C32.9394 47.0594 32.6294 46.3694 32.6094 46.3394C32.5394 46.1794 32.4694 46.0294 32.3994 45.8594L32.3494 45.7194C32.2794 45.5694 32.2194 45.4094 32.1594 45.2394C32.1294 45.1694 32.1094 45.1094 32.0894 45.0694L31.9194 44.5994C31.8894 44.4994 31.8794 44.4594 31.8694 44.4294L31.6994 43.9494L31.6994 43.9194L31.6494 43.7794C31.5894 43.6294 31.5494 43.4894 31.5094 43.3294L31.4694 43.2094L31.3194 42.6694C31.2994 42.5994 31.2794 42.5594 31.2794 42.5094C31.2194 42.3094 31.1794 42.1594 31.1394 41.9994L31.0994 41.7994C31.0594 41.6494 31.0194 41.4994 30.9994 41.3494L30.9394 41.1094C30.9194 41.0094 30.9094 40.9394 30.8994 40.8794L30.8894 40.7794L30.8794 40.7594L30.8194 40.4494C30.7894 40.3094 30.7594 40.1494 30.7394 39.9994C30.7194 39.9094 30.7094 39.8594 30.6994 39.8094C30.6594 39.6094 30.6394 39.4594 30.6294 39.3094L30.5394 38.6094C30.5294 38.5394 30.5194 38.4694 30.5194 38.4094L30.4694 37.9094C30.4694 37.8594 30.4594 37.7694 30.4494 37.6694L30.4094 36.9694C30.3994 36.8094 30.3894 36.6394 30.3894 36.4794C30.3794 36.3794 30.3794 36.3294 30.3794 36.2694C30.3694 36.0194 30.3694 35.7894 30.3694 35.5494C30.3994 20.5894 42.5394 8.42938 57.4794 8.42938Z" fill="#FFC653"/>
</g>
<g filter="url(#filter2_d_12294_37241)">
<path fill-rule="evenodd" clip-rule="evenodd" d="M57.4796 20.1299C65.9696 20.1299 72.8696 27.0399 72.8696 35.5299C72.8696 44.0199 65.9696 50.9199 57.4796 50.9199C48.9996 50.9199 42.0996 44.0199 42.0996 35.5299C42.0896 27.0399 48.9996 20.1299 57.4796 20.1299Z" fill="url(#paint0_linear_12294_37241)"/>
</g>
<path fill-rule="evenodd" clip-rule="evenodd" d="M21.5897 44.4689C21.5897 37.1989 23.6897 30.1689 27.6897 24.1389C28.7997 22.4489 30.0397 20.8689 31.3997 19.3989C30.7297 20.8389 30.1397 22.3389 29.6497 23.8589L30.2097 24.0689C28.7197 27.5989 27.8997 31.4689 27.8997 35.5289C27.8997 35.7989 27.8997 36.0689 27.9097 36.2589C27.9097 36.3589 27.9097 36.4589 27.9197 36.5889C27.9197 36.7689 27.9297 36.9389 27.9397 37.0889L27.9897 37.9289L27.9897 37.9789L28.0497 38.5689C28.0597 38.6889 28.0697 38.8089 28.0797 38.9089L28.1697 39.5989C28.1997 39.7889 28.2197 39.9789 28.2497 40.1689C28.2697 40.2389 28.2797 40.3189 28.2997 40.4289C28.3297 40.5989 28.3497 40.7489 28.3797 40.8689L28.4297 41.1889L28.5797 41.9289L28.5897 41.9489C28.6197 42.0789 28.7497 42.6189 28.7497 42.6189C28.7797 42.7689 28.8197 42.9189 28.8697 43.0989C28.8897 43.1789 28.9097 43.2489 28.9397 43.3189L29.0897 43.8689L29.1297 44.0189C29.1797 44.1889 29.2297 44.3589 29.2897 44.5189L29.2897 44.5589L29.3097 44.6189L28.7497 44.7789C31.2297 55.7189 38.2497 64.9689 47.9297 70.3789L32.1997 70.3789C25.3497 63.4289 21.5897 54.2289 21.5897 44.4689Z" fill="white"/>
<path fill-rule="evenodd" clip-rule="evenodd" d="M27.8397 20.8398C28.8597 11.6998 33.6697 5.42978 41.1497 -0.0002242L94.6997 -0.000228882L94.6997 28.7598C88.4397 14.2998 74.3797 5.02977 58.5297 5.02977C50.3997 5.02977 42.5997 7.46977 35.9597 12.0998L35.6197 12.3398L35.3697 12.6698C34.2097 14.2498 33.1697 13.9098 32.2697 15.6398C30.6397 17.2298 29.1597 18.9698 27.8397 20.8398Z" fill="white"/>
<path fill-rule="evenodd" clip-rule="evenodd" d="M32.3098 47.6506C36.5898 57.5506 46.4498 64.4706 57.9198 64.4705C68.4898 64.4705 77.6798 58.6005 82.4198 49.9505C85.5198 45.8005 87.1998 40.6605 87.1998 35.2105C87.1998 34.1205 87.1398 33.0405 87.0298 31.9905C87.0298 31.9605 87.0198 31.9305 87.0198 31.9005C86.6198 28.2905 85.5598 24.9505 83.9298 22.0205C81.6498 17.5205 78.3398 13.6305 74.2998 10.6805C82.6398 14.5805 89.3598 21.5505 92.9298 30.5505L92.9498 30.6105C93.5998 32.2705 94.1398 34.0005 94.5498 35.7805C92.5798 55.2805 76.2198 70.0605 56.4898 70.0606L53.8398 70.0606C51.7198 69.2306 49.6998 68.2306 47.8098 67.0606C40.5098 62.5706 35.0498 55.7206 32.3098 47.6506Z" fill="white"/>
<path d="M-0.000213623 70.5898L-0.000219693 1.15985L35.7798 1.15984C29.9398 6.82984 26.1798 14.3998 25.2798 22.5498L25.5698 22.6598C25.5598 22.6798 25.5498 22.6898 25.5398 22.7098C21.2698 29.1498 19.0098 36.6798 19.0098 44.4698C19.0098 54.1898 22.4898 63.3798 28.8698 70.5898L-0.000213623 70.5898Z" fill="white"/>
<defs>
<filter id="filter0_d_12294_37241" x="34.3794" y="9.56055" width="57.79" height="59.2598" filterUnits="userSpaceOnUse" color-interpolation-filters="sRGB">
<feFlood flood-opacity="0" result="BackgroundImageFix"/>
<feColorMatrix in="SourceAlpha" type="matrix" values="0 0 0 0 0 0 0 0 0 0 0 0 0 0 0 0 0 0 127 0" result="hardAlpha"/>
<feOffset dy="4"/>
<feGaussianBlur stdDeviation="3.5"/>
<feComposite in2="hardAlpha" operator="out"/>
<feColorMatrix type="matrix" values="0 0 0 0 0.942308 0 0 0 0 0.724615 0 0 0 0 0.28541 0 0 0 1 0"/>
<feBlend mode="normal" in2="BackgroundImageFix" result="effect1_dropShadow_12294_37241"/>
<feBlend mode="normal" in="SourceGraphic" in2="effect1_dropShadow_12294_37241" result="shape"/>
</filter>
<filter id="filter1_d_12294_37241" x="23.3696" y="5.42969" width="56.5498" height="68.1797" filterUnits="userSpaceOnUse" color-interpolation-filters="sRGB">
<feFlood flood-opacity="0" result="BackgroundImageFix"/>
<feColorMatrix in="SourceAlpha" type="matrix" values="0 0 0 0 0 0 0 0 0 0 0 0 0 0 0 0 0 0 127 0" result="hardAlpha"/>
<feOffset dy="4"/>
<feGaussianBlur stdDeviation="3.5"/>
<feComposite in2="hardAlpha" operator="out"/>
<feColorMatrix type="matrix" values="0 0 0 0 0.942308 0 0 0 0 0.724615 0 0 0 0 0.28541 0 0 0 1 0"/>
<feBlend mode="normal" in2="BackgroundImageFix" result="effect1_dropShadow_12294_37241"/>
<feBlend mode="normal" in="SourceGraphic" in2="effect1_dropShadow_12294_37241" result="shape"/>
</filter>
<filter id="filter2_d_12294_37241" x="32.0766" y="13.4489" width="50.816" height="50.8351" filterUnits="userSpaceOnUse" color-interpolation-filters="sRGB">
<feFlood flood-opacity="0" result="BackgroundImageFix"/>
<feColorMatrix in="SourceAlpha" type="matrix" values="0 0 0 0 0 0 0 0 0 0 0 0 0 0 0 0 0 0 127 0" result="hardAlpha"/>
<feOffset dy="3.341"/>
<feGaussianBlur stdDeviation="5.0115"/>
<feComposite in2="hardAlpha" operator="out"/>
<feColorMatrix type="matrix" values="0 0 0 0 1 0 0 0 0 0.921569 0 0 0 0 0.611765 0 0 0 1 0"/>
<feBlend mode="normal" in2="BackgroundImageFix" result="effect1_dropShadow_12294_37241"/>
<feBlend mode="normal" in="SourceGraphic" in2="effect1_dropShadow_12294_37241" result="shape"/>
</filter>
<linearGradient id="paint0_linear_12294_37241" x1="57.4846" y1="50.9199" x2="57.4846" y2="20.1299" gradientUnits="userSpaceOnUse">
<stop stop-color="#FFC653"/>
<stop offset="1" stop-color="#FFE8B9"/>
</linearGradient>
</defs>
</svg>
