<svg width="24" height="24" viewBox="0 0 24 24" fill="none" xmlns="http://www.w3.org/2000/svg">
<path d="M9.99999 19C9.76634 19.0005 9.53991 18.9191 9.35999 18.77C9.15549 18.6005 9.02685 18.3565 9.00246 18.092C8.97807 17.8274 9.05993 17.5641 9.22999 17.36L13.71 12L9.38999 6.63C9.22222 6.4234 9.14372 6.15846 9.17188 5.89382C9.20003 5.62917 9.33251 5.38667 9.53999 5.22C9.74916 5.03596 10.0256 4.94752 10.3028 4.976C10.5799 5.00447 10.8326 5.14727 11 5.37L15.83 11.37C16.1333 11.739 16.1333 12.271 15.83 12.64L10.83 18.64C10.6265 18.8854 10.3182 19.0192 9.99999 19Z" fill="black"/>
</svg>
